<?xml version="1.0" encoding="UTF-8"?>
<svg version="1.1" xmlns="http://www.w3.org/2000/svg" width="225" height="225">
<path d="M0 0 C74.25 0 148.5 0 225 0 C225 74.25 225 148.5 225 225 C150.75 225 76.5 225 0 225 C0 150.75 0 76.5 0 0 Z " fill="#FEFEFE" transform="translate(0,0)"/>
<path d="M0 0 C1.27617187 0.00483398 1.27617187 0.00483398 2.578125 0.00976562 C3.46757812 0.01814453 4.35703125 0.02652344 5.2734375 0.03515625 C6.170625 0.03966797 7.0678125 0.04417969 7.9921875 0.04882812 C10.21100398 0.06063034 12.42968768 0.0770947 14.6484375 0.09765625 C15.05713418 6.99661375 15.33544491 13.89242284 15.52734375 20.80078125 C15.60737989 23.14506575 15.71626476 25.48856198 15.85546875 27.83007812 C16.94107664 46.57277901 16.94107664 46.57277901 13.26000977 52.23233032 C9.65764347 55.99510459 5.40226309 58.49753889 0.82568359 60.91693115 C-1.89586754 62.39283401 -4.38968602 64.10743713 -6.92547607 65.87783813 C-9.85520191 67.91648154 -12.8569101 69.84374806 -15.8515625 71.78515625 C-16.47542847 72.1915332 -17.09929443 72.59791016 -17.74206543 73.01660156 C-51.38297055 94.91012751 -51.38297055 94.91012751 -61.3515625 93.09765625 C-64.2265625 91.09765625 -64.2265625 91.09765625 -66.3515625 88.09765625 C-68.45879924 76.08640682 -59.26490909 64.01681827 -53.3515625 54.09765625 C-52.6915625 54.09765625 -52.0315625 54.09765625 -51.3515625 54.09765625 C-51.10535156 53.20433594 -50.85914062 52.31101563 -50.60546875 51.390625 C-49.27111127 47.88637779 -47.87061492 46.09187473 -45.2890625 43.41015625 C-41.96464105 39.86730326 -38.82173416 36.26876088 -35.7890625 32.47265625 C-32.48140422 28.38266488 -29.01401933 24.64483385 -25.2421875 20.984375 C-23.38678529 19.13280627 -21.67870677 17.21511952 -19.9765625 15.22265625 C-6.83315258 -0.04555435 -6.83315258 -0.04555435 0 0 Z " fill="#4AAC9B" transform="translate(154.3515625,55.90234375)"/>
<path d="M0 0 C18.81 0 37.62 0 57 0 C55.35 1.65 53.7 3.3 52 5 C51.34257813 5.66902344 50.68515625 6.33804688 50.0078125 7.02734375 C46.27068122 10.81874872 42.47452859 14.40801541 38.34765625 17.7734375 C36.86020853 18.97920282 36.86020853 18.97920282 36 21 C35.34 21 34.68 21 34 21 C33.73960938 21.59425781 33.47921875 22.18851563 33.2109375 22.80078125 C31.91628904 25.15202991 30.62352532 26.41243848 28.625 28.1875 C16.90705398 39.62847639 5.99419394 56.39314395 1 72 C0.67 72 0.34 72 0 72 C0 48.24 0 24.48 0 0 Z " fill="#5FB38C" transform="translate(55,56)"/>
<path d="M0 0 C0 12.21 0 24.42 0 37 C-23.43 37 -46.86 37 -71 37 C-68.45319654 35.30213103 -66.53694821 34.35947026 -63.7109375 33.3359375 C-62.86015625 33.02269531 -62.009375 32.70945313 -61.1328125 32.38671875 C-60.22273438 32.05285156 -59.31265625 31.71898437 -58.375 31.375 C-43.70745156 25.87466933 -30.15740813 19.52668397 -17 11 C-15.98679688 10.36707031 -14.97359375 9.73414063 -13.9296875 9.08203125 C-10.23896858 6.77410168 -6.65056536 4.52119157 -3.25 1.796875 C-1 0 -1 0 0 0 Z " fill="#48AB9C" transform="translate(169,132)"/>
<path d="M0 0 C0 0.99 0 1.98 0 3 C0.66 3 1.32 3 2 3 C2 3.66 2 4.32 2 5 C1.34 5.33 0.68 5.66 0 6 C0.99 7.485 0.99 7.485 2 9 C2.375 11.984375 2.375 11.984375 2 15 C0.375 16.765625 0.375 16.765625 -2 18.25 C-2.91265625 18.83265625 -3.8253125 19.4153125 -4.765625 20.015625 C-5.83296875 20.67046875 -6.9003125 21.3253125 -8 22 C-9.24649215 22.80466357 -10.49119796 23.61209913 -11.734375 24.421875 C-19.02641211 29.13036018 -26.39155881 33.36312716 -34.21484375 37.14453125 C-39.63490382 39.76874978 -44.9343027 42.62733948 -50.25317383 45.44921875 C-51.76711589 46.25091587 -53.28262208 47.04966738 -54.79980469 47.84521484 C-56.27348789 48.61868594 -57.74289292 49.40036047 -59.20800781 50.18994141 C-59.90506836 50.55651855 -60.60212891 50.9230957 -61.3203125 51.30078125 C-61.93406738 51.62860596 -62.54782227 51.95643066 -63.18017578 52.29418945 C-65 53 -65 53 -69 53 C-67.96501431 49.89504293 -67.21350711 49.21350711 -65 47 C-64.30885071 45.67919158 -63.63886667 44.34687475 -63 43 C-63.85464844 42.95101562 -64.70929688 42.90203125 -65.58984375 42.8515625 C-66.69457031 42.77679688 -67.79929687 42.70203125 -68.9375 42.625 C-70.03964844 42.55539063 -71.14179687 42.48578125 -72.27734375 42.4140625 C-73.17582031 42.27742188 -74.07429688 42.14078125 -75 42 C-75.33 41.34 -75.66 40.68 -76 40 C-74.865625 40.061875 -73.73125 40.12375 -72.5625 40.1875 C-64.80826772 40.17645166 -57.83288117 36.72725764 -51.1875 33 C-50.44685303 32.5870166 -49.70620605 32.1740332 -48.94311523 31.74853516 C-33.36188181 22.81060858 -18.46988638 12.20203333 -4.12475586 1.42041016 C-2 0 -2 0 0 0 Z " fill="#F4F9F6" transform="translate(167,108)"/>
<path d="M0 0 C0.33 0 0.66 0 1 0 C1.92470553 4.71599818 2.22923777 7.67265609 0 12 C0.495 12.495 0.495 12.495 1 13 C1.08861992 15.8116338 1.11522355 18.59858255 1.09765625 21.41015625 C1.0962413 22.25219101 1.09482635 23.09422577 1.09336853 23.96177673 C1.08775263 26.66205335 1.07519748 29.36224828 1.0625 32.0625 C1.05748705 33.88867068 1.05292379 35.71484266 1.04882812 37.54101562 C1.03777804 42.02737542 1.02050279 46.51367384 1 51 C0.67 51 0.34 51 0 51 C-0.33 39.12 -0.66 27.24 -1 15 C-4.63 17.64 -8.26 20.28 -12 23 C-29.64790529 34.48658717 -48.89521306 43.7402678 -69 50 C-69.66 48.68 -70.32 47.36 -71 46 C-69.515 45.505 -69.515 45.505 -68 45 C-68.99 44.34 -69.98 43.68 -71 43 C-70.39269043 42.76708252 -69.78538086 42.53416504 -69.15966797 42.29418945 C-62.98495638 39.88158129 -57.03963195 37.17753029 -51.125 34.1875 C-50.25367432 33.74954102 -49.38234863 33.31158203 -48.48461914 32.86035156 C-42.74162689 29.9485921 -37.1507598 26.88249058 -31.6328125 23.5625 C-29.06412173 22.03805444 -26.45637594 20.63902139 -23.8125 19.25 C-18.72779276 16.4799172 -13.78460716 13.50453583 -8.875 10.4375 C-7.73575073 9.74865723 -7.73575073 9.74865723 -6.57348633 9.04589844 C-2.29822954 6.44375456 -2.29822954 6.44375456 -0.0078125 2.16015625 C-0.00523437 1.44730469 -0.00265625 0.73445313 0 0 Z " fill="#F3F9F8" transform="translate(169,118)"/>
<path d="M0 0 C0 2 0 2 -2.0625 4.1875 C-3.03730298 5.12953649 -4.01687417 6.06665269 -5 7 C-10.37806621 12.11116466 -15.08600706 17.60061296 -19.71386719 23.39746094 C-21.07167009 25.08930191 -22.44489406 26.76776824 -23.8203125 28.4453125 C-50.76043074 60.2269857 -50.76043074 60.2269857 -60 99 C-58.98002234 102.19528547 -57.59644281 105.05765102 -56 108 C-55.33056469 109.33194542 -54.66308004 110.66487938 -54 112 C-59.16640918 110.08651512 -61.95105885 105.79637507 -64.6171875 101.23046875 C-67.88554377 93.59507147 -66.97838116 84.83023992 -64.20361328 77.15136719 C-56.2053568 57.3010098 -41.09263093 40.42871174 -26.6875 24.90234375 C-24.26739391 22.28876988 -21.87691414 19.65280596 -19.5 17 C-18.78457031 16.20851563 -18.06914063 15.41703125 -17.33203125 14.6015625 C-15.58340328 12.6508318 -13.85572415 10.68742263 -12.13671875 8.7109375 C-11.15386685 7.59876298 -10.17079694 6.48678107 -9.1875 5.375 C-8.50300781 4.57449219 -8.50300781 4.57449219 -7.8046875 3.7578125 C-4.45232319 0 -4.45232319 0 0 0 Z " fill="#73B789" transform="translate(130,56)"/>
<path d="M0 0 C14.19 0 28.38 0 43 0 C41.35 1.65 39.7 3.3 38 5 C37.41476563 5.59683594 36.82953125 6.19367187 36.2265625 6.80859375 C32.76474574 10.3295147 29.20473032 13.61047855 25.3828125 16.73828125 C23.86422362 17.97214298 23.86422362 17.97214298 23 20 C22.34 20 21.68 20 21 20 C20.67 20.99 20.34 21.98 20 23 C18.54292726 20.08585452 19.31122427 18.13079879 20 15 C21.0625 12.625 21.0625 12.625 22 11 C21.34 11 20.68 11 20 11 C19.67 9.68 19.34 8.36 19 7 C16.69 6.67 14.38 6.34 12 6 C12 5.34 12 4.68 12 4 C10.1746875 4.309375 10.1746875 4.309375 8.3125 4.625 C4.65193227 5.09963844 2.32388488 4.76581384 -1 3 C-0.67 2.01 -0.34 1.02 0 0 Z " fill="#27A0B9" transform="translate(68,57)"/>
<path d="M0 0 C0.25 2.30078125 0.25 2.30078125 0 5 C-1.625 6.66796875 -1.625 6.66796875 -4 8.1875 C-5.36898437 9.07501953 -5.36898437 9.07501953 -6.765625 9.98046875 C-7.83296875 10.64691406 -8.9003125 11.31335938 -10 12 C-11.24571412 12.8071719 -12.490459 13.61584104 -13.734375 14.42578125 C-21.02843233 19.12927438 -28.39238224 23.36352517 -36.21484375 27.14453125 C-41.63490382 29.76874978 -46.9343027 32.62733948 -52.25317383 35.44921875 C-53.76711589 36.25091587 -55.28262208 37.04966738 -56.79980469 37.84521484 C-58.27348789 38.61868594 -59.74289292 39.40036047 -61.20800781 40.18994141 C-61.90506836 40.55651855 -62.60212891 40.9230957 -63.3203125 41.30078125 C-63.93406738 41.62860596 -64.54782227 41.95643066 -65.18017578 42.29418945 C-67 43 -67 43 -71 43 C-70 40 -70 40 -66.921875 38.37890625 C-65.53397178 37.76722417 -64.14307619 37.16230749 -62.75 36.5625 C-44.64095923 28.34034799 -28.17184874 17.67462827 -11.77661133 6.50292969 C-10.82618958 5.85825745 -10.82618958 5.85825745 -9.85656738 5.20056152 C-8.65627683 4.38550609 -7.45871408 3.56641506 -6.26428223 2.74279785 C-2.22346879 0 -2.22346879 0 0 0 Z " fill="#39A5B1" transform="translate(169,118)"/>
<path d="M0 0 C0 1.32 0 2.64 0 4 C-0.66 4 -1.32 4 -2 4 C-2.061875 5.27875 -2.12375 6.5575 -2.1875 7.875 C-2.80140501 13.6077894 -5.31910367 17.98412945 -8 23 C-10.73399019 29.11893043 -11.23788986 36.15787015 -9.171875 42.5703125 C-8.19779714 44.77289154 -7.14817615 46.88383592 -6 49 C-5.33056469 50.33194542 -4.66308004 51.66487938 -4 53 C-9.16640918 51.08651512 -11.95105885 46.79637507 -14.6171875 42.23046875 C-17.94115184 34.46516224 -16.95317416 25.6873462 -14.04272461 17.93530273 C-8.09628305 3.41807383 -8.09628305 3.41807383 -3.875 0.5625 C-2 0 -2 0 0 0 Z " fill="#82BF6A" transform="translate(80,115)"/>
<path d="M0 0 C0.08131463 1.43655854 0.13933559 2.8744483 0.1875 4.3125 C0.23970703 5.51326172 0.23970703 5.51326172 0.29296875 6.73828125 C-0.06198392 9.47851584 -0.89366282 10.29171079 -3 12 C-3.66 11.34 -4.32 10.68 -5 10 C-5.18490007 12.32357511 -5.18490007 12.32357511 -3 15 C-4.32 15.33 -5.64 15.66 -7 16 C-7.020625 16.763125 -7.04125 17.52625 -7.0625 18.3125 C-8 21 -8 21 -11.5625 22.8125 C-12.696875 23.204375 -13.83125 23.59625 -15 24 C-15.04898438 24.69867188 -15.09796875 25.39734375 -15.1484375 26.1171875 C-15.22320312 27.02726562 -15.29796875 27.93734375 -15.375 28.875 C-15.44460937 29.77992187 -15.51421875 30.68484375 -15.5859375 31.6171875 C-16 34 -16 34 -18 36 C-17.34 36.33 -16.68 36.66 -16 37 C-16 37.66 -16 38.32 -16 39 C-16.99 39.495 -16.99 39.495 -18 40 C-18.72693904 41.97888961 -19.39816251 43.97954558 -20 46 C-18.68 45.34 -17.36 44.68 -16 44 C-16 44.99 -16 45.98 -16 47 C-11.38 47 -6.76 47 -2 47 C-5.72026264 50.72026264 -11.1602911 51.71696786 -16.25 52.5 C-20.27678414 51.76785743 -21.65330794 50.31297702 -24 47 C-26.10723674 34.98875057 -16.91334659 22.91916202 -11 13 C-10.34 13 -9.68 13 -9 13 C-8.79375 12.154375 -8.5875 11.30875 -8.375 10.4375 C-7.25162831 7.62907079 -3.69010931 0 0 0 Z " fill="#98C856" transform="translate(112,97)"/>
<path d="M0 0 C0.87914062 0.02255859 1.75828125 0.04511719 2.6640625 0.06835938 C4.81845007 0.12690252 6.9719531 0.21657217 9.125 0.3125 C9.30256865 7.34133106 9.42510649 14.36958363 9.50952148 21.40014648 C9.54471199 23.79131687 9.59247246 26.18233677 9.65307617 28.57299805 C9.73805142 32.01128236 9.77770357 35.44757564 9.80859375 38.88671875 C9.84472275 39.95460129 9.88085175 41.02248383 9.91807556 42.12272644 C9.92190403 49.3685664 9.92190403 49.3685664 7.59036255 52.13027954 C5.12736303 53.95662332 3.24076306 55.3125 0.125 55.3125 C0.125 53.0025 0.125 50.6925 0.125 48.3125 C2.765 48.3125 5.405 48.3125 8.125 48.3125 C8.125 35.1125 8.125 21.9125 8.125 8.3125 C-4.24681561 7.5746213 -4.24681561 7.5746213 -16.875 10.3125 C-16.66783455 6.68710466 -15.92905484 5.37140592 -13.4375 2.65625 C-9.28408912 -0.660409 -5.0984287 -0.24954659 0 0 Z " fill="#0B98CC" transform="translate(159.875,55.6875)"/>
<path d="M0 0 C0.99 0 1.98 0 3 0 C3.19326436 7.22625204 3.37075091 14.45276627 3.53710938 21.6796875 C3.5956201 24.13973831 3.65778431 26.59970498 3.72363281 29.05957031 C3.81748648 32.5890369 3.89833002 36.1185945 3.9765625 39.6484375 C4.00875885 40.75367767 4.0409552 41.85891785 4.0741272 42.99765015 C4.10438492 44.52901108 4.10438492 44.52901108 4.13525391 46.09130859 C4.15746002 46.99287689 4.17966614 47.89444519 4.20254517 48.82333374 C4 51 4 51 2 53 C2 52.01 2 51.02 2 50 C1.01 50.66 0.02 51.32 -1 52 C-1.99 51.67 -2.98 51.34 -4 51 C-3.505 50.505 -3.505 50.505 -3 50 C-2.8775669 48.49683231 -2.82223715 46.98811833 -2.79467773 45.48022461 C-2.77473251 44.51930405 -2.75478729 43.55838348 -2.73423767 42.56834412 C-2.70916893 41.00117393 -2.70916893 41.00117393 -2.68359375 39.40234375 C-2.66281265 38.33834854 -2.64203156 37.27435333 -2.62062073 36.17811584 C-2.55500746 32.7646456 -2.49618577 29.35109571 -2.4375 25.9375 C-2.39432597 23.62954891 -2.35071206 21.321606 -2.30664062 19.01367188 C-2.19931416 13.34253318 -2.09757008 7.67131448 -2 2 C-1.67 2 -1.34 2 -1 2 C-0.67 3.98 -0.34 5.96 0 8 C0 5.36 0 2.72 0 0 Z " fill="#FAFCF9" transform="translate(171,56)"/>
<path d="M0 0 C0.33 0 0.66 0 1 0 C1 18.48 1 36.96 1 56 C2.32 56 3.64 56 5 56 C4.67 54.35 4.34 52.7 4 51 C4.639375 50.649375 5.27875 50.29875 5.9375 49.9375 C8.82163832 47.22815794 8.7100822 44.84141089 9 41 C13.75 40 13.75 40 16 40 C16.33 40.99 16.66 41.98 17 43 C16.03125 44.83984375 16.03125 44.83984375 14.5 46.9375 C8.99122059 54.82186028 4.00025618 62.82274581 1 72 C0.67 72 0.34 72 0 72 C0 48.24 0 24.48 0 0 Z " fill="#AACD8E" transform="translate(55,56)"/>
<path d="M0 0 C0 3.41099168 -0.49145406 6.63088314 -1 10 C0.32 10 1.64 10 3 10 C3.33 10.99 3.66 11.98 4 13 C2.63671875 14.97265625 2.63671875 14.97265625 0.6875 17.0625 C0.05199219 17.75472656 -0.58351563 18.44695312 -1.23828125 19.16015625 C-2.47750012 20.4543294 -3.73300601 21.73300601 -5 23 C-5.99 22.67 -6.98 22.34 -8 22 C-7.34 21.01 -6.68 20.02 -6 19 C-7.65 18.67 -9.3 18.34 -11 18 C-10.67 17.01 -10.34 16.02 -10 15 C-10.61875 15.495 -11.2375 15.99 -11.875 16.5 C-14 18 -14 18 -16 18 C-16 17.01 -16 16.02 -16 15 C-15.34 15 -14.68 15 -14 15 C-13.34 13.68 -12.68 12.36 -12 11 C-11.34 11 -10.68 11 -10 11 C-9.75507812 10.41734375 -9.51015625 9.8346875 -9.2578125 9.234375 C-7.79564126 6.63697764 -6.15259586 5.16024169 -3.875 3.25 C-3.15054688 2.63640625 -2.42609375 2.0228125 -1.6796875 1.390625 C-0.84824219 0.70226563 -0.84824219 0.70226563 0 0 Z " fill="#FAFDFD" transform="translate(105,62)"/>
<path d="M0 0 C0 1.98 0 3.96 0 6 C24.255 6.495 24.255 6.495 49 7 C49 7.33 49 7.66 49 8 C25.57 8 2.14 8 -22 8 C-18.51849756 5.67899838 -14.89433316 4.32324845 -11 2.875 C-10.27554688 2.59785156 -9.55109375 2.32070312 -8.8046875 2.03515625 C-5.74462128 0.88904289 -3.29457901 0 0 0 Z " fill="#9AC594" transform="translate(120,161)"/>
<path d="M0 0 C2.16295027 2.16295027 2.5534013 3.05244857 3 6 C2.67 6.99 2.34 7.98 2 9 C1.23268793 16.67312067 2.34562969 22.26475545 6 29 C6.66943531 30.33194542 7.33691996 31.66487938 8 33 C2.84122347 31.08934202 0.13692765 26.68578928 -2.8125 22.3125 C-4.52876614 17.52502077 -4.59161562 13.03257439 -4 8 C-2.5625 5 -2.5625 5 -1 3 C-0.67 2.01 -0.34 1.02 0 0 Z " fill="#8FC55E" transform="translate(68,135)"/>
<path d="M0 0 C0.87462891 0.02707031 1.74925781 0.05414063 2.65039062 0.08203125 C4.78884112 0.15214438 6.92600695 0.25974463 9.0625 0.375 C9.24006865 7.40383106 9.36260649 14.43208363 9.44702148 21.46264648 C9.48221199 23.85381687 9.52997246 26.24483677 9.59057617 28.63549805 C9.67555142 32.07378236 9.71520357 35.51007564 9.74609375 38.94921875 C9.78222275 40.01710129 9.81835175 41.08498383 9.85557556 42.18522644 C9.85940403 49.4310664 9.85940403 49.4310664 7.52786255 52.19277954 C5.06486303 54.01912332 3.17826306 55.375 0.0625 55.375 C0.0625 53.065 0.0625 50.755 0.0625 48.375 C2.7025 48.375 5.3425 48.375 8.0625 48.375 C8.0625 32.865 8.0625 17.355 8.0625 1.375 C0.1425 1.87 0.1425 1.87 -7.9375 2.375 C-8.2675 3.035 -8.5975 3.695 -8.9375 4.375 C-10.27083333 4.70833333 -11.60416667 5.04166667 -12.9375 5.375 C-13.2675 6.035 -13.5975 6.695 -13.9375 7.375 C-14.9275 7.045 -15.9175 6.715 -16.9375 6.375 C-11.65271764 0.56512358 -7.7026598 -0.45688781 0 0 Z " fill="#269BCE" transform="translate(159.9375,55.625)"/>
<path d="M0 0 C0 2 0 2 -2.0625 4.1875 C-3.03730298 5.12953649 -4.01687417 6.06665269 -5 7 C-10.09902135 11.84596818 -14.53693848 17.01500524 -18.88671875 22.546875 C-20.79322322 24.75997077 -22.59263481 26.36973012 -25 28 C-25.83203125 26.37890625 -25.83203125 26.37890625 -26 24 C-24.30005149 21.77511227 -22.65066817 19.90621879 -20.6875 17.9375 C-19.5759234 16.78732699 -18.46526172 15.63626912 -17.35546875 14.484375 C-16.79263184 13.90623047 -16.22979492 13.32808594 -15.64990234 12.73242188 C-14.08843702 11.09286018 -12.592148 9.41718377 -11.11328125 7.703125 C-10.25089844 6.70796875 -9.38851562 5.7128125 -8.5 4.6875 C-7.7265625 3.78386719 -6.953125 2.88023438 -6.15625 1.94921875 C-4 0 -4 0 0 0 Z " fill="#2DA3BC" transform="translate(130,56)"/>
<path d="M0 0 C0.08131463 1.43655854 0.13933559 2.8744483 0.1875 4.3125 C0.23970703 5.51326172 0.23970703 5.51326172 0.29296875 6.73828125 C-0.06198392 9.47851584 -0.89366282 10.29171079 -3 12 C-3.66 11.34 -4.32 10.68 -5 10 C-5.18490007 12.32357511 -5.18490007 12.32357511 -3 15 C-4.32 15.33 -5.64 15.66 -7 16 C-6.979375 16.7425 -6.95875 17.485 -6.9375 18.25 C-8 21 -8 21 -10.0703125 22.22265625 C-12.3588977 23.22346389 -14.65126015 24.15065771 -17 25 C-15.43358249 20.69235185 -13.31663844 16.93828536 -11 13 C-10.34 13 -9.68 13 -9 13 C-8.79375 12.154375 -8.5875 11.30875 -8.375 10.4375 C-7.25162831 7.62907079 -3.69010931 0 0 0 Z " fill="#80BE76" transform="translate(112,97)"/>
<path d="M0 0 C0.99 1.32 1.98 2.64 3 4 C2.39671875 4.72445312 1.7934375 5.44890625 1.171875 6.1953125 C-3.87960201 12.18376258 -3.87960201 12.18376258 -8.3125 18.625 C-10 21 -10 21 -12.25 21.875 C-12.8275 21.91625 -13.405 21.9575 -14 22 C-14.68359375 20.26171875 -14.68359375 20.26171875 -15 18 C-13.84765625 15.95703125 -13.84765625 15.95703125 -12.0625 13.8125 C-11.423125 13.03648438 -10.78375 12.26046875 -10.125 11.4609375 C-6.79234029 7.60142349 -3.43242544 3.77121029 0 0 Z " fill="#54AD9C" transform="translate(103,81)"/>
<path d="M0 0 C2.8125 -0.1875 2.8125 -0.1875 6 0 C7.69921875 1.51171875 7.69921875 1.51171875 9 3 C6.77144622 4.43845758 4.54218143 5.87579219 2.3125 7.3125 C1.68666016 7.71662109 1.06082031 8.12074219 0.41601562 8.53710938 C-9.61985518 15 -9.61985518 15 -12 15 C-12 12.69 -12 10.38 -12 8 C-9.36 8 -6.72 8 -4 8 C-3.566875 7.071875 -3.566875 7.071875 -3.125 6.125 C-2 4 -2 4 0 2 C0 1.34 0 0.68 0 0 Z " fill="#6DB886" transform="translate(124,128)"/>
<path d="M0 0 C6.6 0 13.2 0 20 0 C20 1.98 20 3.96 20 6 C16.71303767 6.79953138 15.28976808 7.09658936 12 6 C12 5.34 12 4.68 12 4 C10.1746875 4.309375 10.1746875 4.309375 8.3125 4.625 C4.65193227 5.09963844 2.32388488 4.76581384 -1 3 C-0.67 2.01 -0.34 1.02 0 0 Z " fill="#31A4AE" transform="translate(68,57)"/>
<path d="M0 0 C0.33 0 0.66 0 1 0 C1 3.96 1 7.92 1 12 C-3.95 12 -8.9 12 -14 12 C-12.69334867 8.080046 -11.05578034 7.54073641 -7.5625 5.4375 C-3.53872741 3.02809453 -3.53872741 3.02809453 0 0 Z " fill="#1B99C2" transform="translate(168,132)"/>
<path d="M0 0 C0.99 0.99 1.98 1.98 3 3 C-0.62437303 4.86169981 -4.25396369 6.71275506 -7.88867188 8.55419922 C-9.12386884 9.18184259 -10.35761328 9.81235322 -11.58984375 10.44580078 C-13.36331975 11.35685256 -15.14253902 12.25669681 -16.921875 13.15625 C-17.99018555 13.70087891 -19.05849609 14.24550781 -20.15917969 14.80664062 C-23 16 -23 16 -27 16 C-26 13 -26 13 -22.5 11.1328125 C-21.00424876 10.45409924 -19.50395243 9.78534122 -18 9.125 C-16.44813522 8.42165667 -14.89734289 7.71594205 -13.34765625 7.0078125 C-12.59887207 6.6665332 -11.85008789 6.32525391 -11.07861328 5.97363281 C-7.26323997 4.18649295 -3.63933365 2.11743048 0 0 Z " fill="#91C470" transform="translate(125,145)"/>
<path d="M0 0 C1.85776765 3.13498292 2.20140476 5.37471432 2 9 C-0.31 9.33 -2.62 9.66 -5 10 C-5.33 12.31 -5.66 14.62 -6 17 C-8.64 17 -11.28 17 -14 17 C-12.44363758 13.37409619 -10.2207077 10.83141085 -7.5625 7.9375 C-6.78003906 7.08027344 -5.99757812 6.22304687 -5.19140625 5.33984375 C-3.49079133 3.52403566 -1.77582096 1.74156074 0 0 Z " fill="#36A5A7" transform="translate(142,63)"/>
<path d="M0 0 C0.33 0.66 0.66 1.32 1 2 C1.99 2.33 2.98 2.66 4 3 C2.42889291 3.90775076 0.85613236 4.81270723 -0.72265625 5.70703125 C-2.42403163 6.67299223 -4.1182136 7.65164325 -5.80859375 8.63671875 C-6.77925781 9.18972656 -7.74992188 9.74273437 -8.75 10.3125 C-9.67296875 10.84488281 -10.5959375 11.37726563 -11.546875 11.92578125 C-14 13 -14 13 -17 12 C-13.8296865 8.51579408 -10.26911027 6.13496654 -6.25 3.75 C-5.64800781 3.38648438 -5.04601562 3.02296875 -4.42578125 2.6484375 C-2.95361969 1.76046703 -1.4772326 0.87950842 0 0 Z " fill="#54ACAA" transform="translate(143,134)"/>
<path d="M0 0 C1.4540625 0.0309375 1.4540625 0.0309375 2.9375 0.0625 C3.2675 1.0525 3.5975 2.0425 3.9375 3.0625 C2.79296875 5.25390625 2.79296875 5.25390625 1.125 7.625 C0.58230469 8.41003906 0.03960937 9.19507812 -0.51953125 10.00390625 C-2.0625 12.0625 -2.0625 12.0625 -4.0625 14.0625 C-5.07772809 9.43757206 -4.9734468 5.70832868 -4.0625 1.0625 C-3.0625 0.0625 -3.0625 0.0625 0 0 Z " fill="#7ABC77" transform="translate(68.0625,95.9375)"/>
<path d="M0 0 C0.66 0 1.32 0 2 0 C2.08096803 1.45742463 2.13917774 2.91612807 2.1875 4.375 C2.22230469 5.18710938 2.25710937 5.99921875 2.29296875 6.8359375 C2.19628906 7.55007812 2.09960938 8.26421875 2 9 C1.01 9.66 0.02 10.32 -1 11 C-1 11.99 -1 12.98 -1 14 C-1.99 14.33 -2.98 14.66 -4 15 C-4.33 17.31 -4.66 19.62 -5 22 C-5.33 22 -5.66 22 -6 22 C-6.7952336 13.72957061 -3.64860394 7.29720788 0 0 Z " fill="#91C367" transform="translate(94,122)"/>
<path d="M0 0 C1.65 0 3.3 0 5 0 C3.63872255 5.56886228 3.63872255 5.56886228 0.5 7.6875 C-0.325 8.120625 -1.15 8.55375 -2 9 C-2.99 10.485 -2.99 10.485 -4 12 C-4.66 11.67 -5.32 11.34 -6 11 C-5.4739075 7.21213403 -4.61896089 4.82847776 -2 2 C-1.34 2 -0.68 2 0 2 C0 1.34 0 0.68 0 0 Z " fill="#F8FBF7" transform="translate(130,56)"/>
<path d="M0 0 C4.95 0 9.9 0 15 0 C10 5 10 5 7.32421875 5.26953125 C6.45410156 5.11871094 5.58398438 4.96789063 4.6875 4.8125 C3.80449219 4.67457031 2.92148438 4.53664063 2.01171875 4.39453125 C1.34785156 4.26433594 0.68398437 4.13414063 0 4 C0 2.68 0 1.36 0 0 Z " fill="#1398C9" transform="translate(96,57)"/>
<path d="M0 0 C0.4375 2.1875 0.4375 2.1875 0 5 C-2.05908436 7.1498429 -4.25841737 8.82981229 -7 10 C-9.234375 9.6328125 -9.234375 9.6328125 -11 9 C-11 8.01 -11 7.02 -11 6 C-9.1015625 4.39453125 -9.1015625 4.39453125 -6.625 2.8125 C-5.81289062 2.28269531 -5.00078125 1.75289063 -4.1640625 1.20703125 C-2 0 -2 0 0 0 Z " fill="#2097C6" transform="translate(169,118)"/>
<path d="M0 0 C0.66 0 1.32 0 2 0 C2 0.66 2 1.32 2 2 C2.92425781 2.11408203 2.92425781 2.11408203 3.8671875 2.23046875 C6 3 6 3 7.1953125 4.92578125 C7.65550781 6.10720703 7.65550781 6.10720703 8.125 7.3125 C8.43695313 8.09238281 8.74890625 8.87226563 9.0703125 9.67578125 C9.37710938 10.44277344 9.68390625 11.20976562 10 12 C10.65293358 13.34011192 11.31521518 14.67588068 12 16 C6.67114314 14.02634931 3.83866151 9.50380685 1.1875 4.75 C0 2 0 2 0 0 Z " fill="#9DC962" transform="translate(64,152)"/>
<path d="M0 0 C0.68707555 2.49064888 1 4.37886292 1 7 C-2.42232972 8.14077657 -5.08673217 8.09815117 -8.6875 8.0625 C-10.45673828 8.04896484 -10.45673828 8.04896484 -12.26171875 8.03515625 C-13.16535156 8.02355469 -14.06898437 8.01195312 -15 8 C-11.9377256 5.51372483 -8.8542946 3.90010596 -5.25 2.3125 C-4.26515625 1.87550781 -3.2803125 1.43851563 -2.265625 0.98828125 C-1.14414063 0.49908203 -1.14414063 0.49908203 0 0 Z " fill="#70B98E" transform="translate(137,152)"/>
<path d="M0 0 C0.33 0 0.66 0 1 0 C1.33 16.17 1.66 32.34 2 49 C0.02 49.495 0.02 49.495 -2 50 C-1.67 49.34 -1.34 48.68 -1 48 C-0.88177029 46.45857825 -0.82300189 44.91238903 -0.79467773 43.36669922 C-0.7647599 41.92543167 -0.7647599 41.92543167 -0.73423767 40.45504761 C-0.71752518 39.41542877 -0.70081268 38.37580994 -0.68359375 37.3046875 C-0.6524221 35.71081711 -0.6524221 35.71081711 -0.62062073 34.08474731 C-0.55509739 30.68156562 -0.49622727 27.27830511 -0.4375 23.875 C-0.39431743 21.57160634 -0.35070323 19.26822074 -0.30664062 16.96484375 C-0.19941318 11.30997979 -0.09765198 5.65503697 0 0 Z " fill="#ECF5F5" transform="translate(169,58)"/>
<path d="M0 0 C0 0.66 0 1.32 0 2 C-2.1171875 3.5078125 -2.1171875 3.5078125 -4.875 5.125 C-5.77992187 5.66382813 -6.68484375 6.20265625 -7.6171875 6.7578125 C-10 8 -10 8 -12 8 C-12 5.69 -12 3.38 -12 1 C-7.915021 0.45533613 -4.1274515 0 0 0 Z " fill="#79BB79" transform="translate(124,135)"/>
<path d="M0 0 C0.33 0 0.66 0 1 0 C1.41901462 3.42527823 1.60891318 6.59112708 1 10 C-0.98166856 12.36655957 -3.17334544 13.78492225 -6 15 C-6.66 15 -7.32 15 -8 15 C-8 12.69 -8 10.38 -8 8 C-5.36 8 -2.72 8 0 8 C0 5.36 0 2.72 0 0 Z " fill="#2D9FB6" transform="translate(168,96)"/>
<path d="M0 0 C5.28 0 10.56 0 16 0 C16 0.99 16 1.98 16 3 C10.39 3 4.78 3 -1 3 C-0.67 2.01 -0.34 1.02 0 0 Z " fill="#0A90D0" transform="translate(152,57)"/>
<path d="M0 0 C0 3.96 0 7.92 0 12 C-2.31 12 -4.62 12 -7 12 C-6.01 11.67 -5.02 11.34 -4 11 C-4.34444881 8.52733235 -4.34444881 8.52733235 -5 6 C-5.66 5.67 -6.32 5.34 -7 5 C-1.125 0 -1.125 0 0 0 Z " fill="#1498CF" transform="translate(169,132)"/>
<path d="M0 0 C3.96 0 7.92 0 12 0 C12 1.32 12 2.64 12 4 C3.57142857 5.42857143 3.57142857 5.42857143 -1 3 C-0.67 2.01 -0.34 1.02 0 0 Z " fill="#45A99C" transform="translate(68,57)"/>
<path d="M0 0 C0 1.32 0 2.64 0 4 C-0.66 4 -1.32 4 -2 4 C-2 5.32 -2 6.64 -2 8 C-2.66 8 -3.32 8 -4 8 C-4 8.66 -4 9.32 -4 10 C-5.32 10 -6.64 10 -8 10 C-8.20086443 6.28400809 -8.1519437 5.22791555 -6 2 C-3.83252916 0.71306419 -2.53199972 0 0 0 Z " fill="#76BD77" transform="translate(80,115)"/>
<path d="M0 0 C2.475 0.99 2.475 0.99 5 2 C2.46636932 6.22271781 0.43379675 8.78310162 -4 11 C-3.38461538 3.49230769 -3.38461538 3.49230769 -1.4375 1 C-0.963125 0.67 -0.48875 0.34 0 0 Z " fill="#68B69A" transform="translate(87,100)"/>
<path d="M0 0 C0.99 1.32 1.98 2.64 3 4 C1.02 6.31 -0.96 8.62 -3 11 C-3.99 9.68 -4.98 8.36 -6 7 C-4.02 4.69 -2.04 2.38 0 0 Z " fill="#46A9A7" transform="translate(103,81)"/>
<path d="M0 0 C0.99 0.99 1.98 1.98 3 3 C1.4274835 3.89429374 -0.15853741 4.76487427 -1.75 5.625 C-2.63171875 6.11226562 -3.5134375 6.59953125 -4.421875 7.1015625 C-5.27265625 7.39804688 -6.1234375 7.69453125 -7 8 C-8.32 7.34 -9.64 6.68 -11 6 C-7.37 4.02 -3.74 2.04 0 0 Z " fill="#78BA88" transform="translate(125,145)"/>
<path d="M0 0 C-1 3 -1 3 -4 5 C-7.6875 4.625 -7.6875 4.625 -11 4 C-11 3.01 -11 2.02 -11 1 C-7.32589215 -0.17571451 -3.83070817 -0.07366746 0 0 Z " fill="#3DA6A7" transform="translate(158,112)"/>
<path d="M0 0 C0.87462891 0.02707031 1.74925781 0.05414063 2.65039062 0.08203125 C4.78884112 0.15214438 6.92600695 0.25974463 9.0625 0.375 C9.0625 0.705 9.0625 1.035 9.0625 1.375 C0.6475 1.87 0.6475 1.87 -7.9375 2.375 C-8.2675 3.035 -8.5975 3.695 -8.9375 4.375 C-10.27083333 4.70833333 -11.60416667 5.04166667 -12.9375 5.375 C-13.2675 6.035 -13.5975 6.695 -13.9375 7.375 C-14.9275 7.045 -15.9175 6.715 -16.9375 6.375 C-11.65271764 0.56512358 -7.7026598 -0.45688781 0 0 Z " fill="#4DACD1" transform="translate(159.9375,55.625)"/>
<path d="M0 0 C4.62 0 9.24 0 14 0 C10.21037688 3.78962312 4.67082592 4.91206179 -0.5625 5.1875 C-1.366875 5.125625 -2.17125 5.06375 -3 5 C-3 4.67 -3 4.34 -3 4 C-1.35 4 0.3 4 2 4 C2 3.01 2 2.02 2 1 C1.34 0.67 0.68 0.34 0 0 Z " fill="#9EC76C" transform="translate(96,144)"/>
<path d="M0 0 C0.66 1.32 1.32 2.64 2 4 C0.73581754 4.69965443 -0.53665402 5.38434763 -1.8125 6.0625 C-2.52019531 6.44535156 -3.22789062 6.82820312 -3.95703125 7.22265625 C-6 8 -6 8 -9 7 C-6.24479785 4.04070881 -3.53372712 1.96318174 0 0 Z " fill="#63B192" transform="translate(135,139)"/>
<path d="M0 0 C1.85776765 3.13498292 2.20140476 5.37471432 2 9 C0.35 9 -1.3 9 -3 9 C-3.33 8.01 -3.66 7.02 -4 6 C-2.84338843 3.79192337 -1.77322566 1.77322566 0 0 Z " fill="#2FA0B6" transform="translate(142,63)"/>
<path d="M0 0 C0 2 0 2 -2.3125 4.5 C-5 7 -5 7 -8 9 C-8 8.34 -8 7.68 -8 7 C-8.66 6.67 -9.32 6.34 -10 6 C-9.09650406 4.98808455 -8.17659153 3.99081074 -7.25 3 C-6.48429687 2.1646875 -6.48429687 2.1646875 -5.703125 1.3125 C-4 0 -4 0 0 0 Z " fill="#329FD4" transform="translate(130,56)"/>
<path d="M0 0 C0.33 0.66 0.66 1.32 1 2 C1.99 2.33 2.98 2.66 4 3 C-1.14285714 7.42857143 -1.14285714 7.42857143 -5 8 C-3.375 2.25 -3.375 2.25 0 0 Z " fill="#28A1BB" transform="translate(157,125)"/>
<path d="M0 0 C0.66 0 1.32 0 2 0 C2.99 1.98 3.98 3.96 5 6 C3.625 8 3.625 8 2 10 C1.34 10 0.68 10 0 10 C-0.33 10.99 -0.66 11.98 -1 13 C-2.86323311 9.27353379 -1.00902983 4.89197221 0 1 C0 0.67 0 0.34 0 0 Z " fill="#39A4AE" transform="translate(89,67)"/>
<path d="M0 0 C0.33 0 0.66 0 1 0 C1.3457886 5.64788053 0.56064053 9.07569129 -2 14 C-2.99 14.495 -2.99 14.495 -4 15 C-3.43179252 9.54520815 -2.05362055 5.08940744 0 0 Z " fill="#97C66F" transform="translate(68,128)"/>
<path d="M0 0 C1.32 0.33 2.64 0.66 4 1 C4 4 4 4 1.5 6.6875 C0.675 7.450625 -0.15 8.21375 -1 9 C-1 8.01 -1 7.02 -1 6 C-1.99 5.67 -2.98 5.34 -4 5 C-2.68 4.67 -1.36 4.34 0 4 C0 2.68 0 1.36 0 0 Z " fill="#EDF9F8" transform="translate(135,63)"/>
<path d="M0 0 C1.20628008 2.33214148 2.1654738 4.49642139 3 7 C2.0409375 7.2784375 2.0409375 7.2784375 1.0625 7.5625 C-1.42126213 8.94246056 -1.42126213 8.94246056 -1.75 12.625 C-1.8325 13.73875 -1.915 14.8525 -2 16 C-2.33 16 -2.66 16 -3 16 C-3.33266291 9.79029227 -2.45029331 5.71735105 0 0 Z " fill="#ACD47B" transform="translate(91,128)"/>
<path d="M0 0 C1.65 0.99 3.3 1.98 5 3 C5 2.34 5 1.68 5 1 C5.66 1 6.32 1 7 1 C6.34 2.98 5.68 4.96 5 7 C3.68 6.34 2.36 5.68 1 5 C0.34 5.66 -0.32 6.32 -1 7 C-2 4 -2 4 -1.0625 1.8125 C-0.5365625 0.9153125 -0.5365625 0.9153125 0 0 Z " fill="#89C07F" transform="translate(71,122)"/>
<path d="M0 0 C0 0.66 0 1.32 0 2 C0.66 2.33 1.32 2.66 2 3 C-0.52475462 4.26237731 -2.31200466 4.09856404 -5.125 4.0625 C-6.03507812 4.05347656 -6.94515625 4.04445312 -7.8828125 4.03515625 C-8.58148438 4.02355469 -9.28015625 4.01195312 -10 4 C-6.64877401 1.34213111 -4.39380802 0 0 0 Z " fill="#9AC968" transform="translate(112,164)"/>
<path d="M0 0 C0.66 0 1.32 0 2 0 C2 1.98 2 3.96 2 6 C-0.31 6.33 -2.62 6.66 -5 7 C-1.125 1.125 -1.125 1.125 0 0 Z " fill="#5CB090" transform="translate(118,89)"/>
<path d="M0 0 C-0.53895377 3.7726764 -1.99535358 5.68212991 -5 8 C-7.13671875 7.60546875 -7.13671875 7.60546875 -9 7 C-7.88121617 5.82737096 -6.75476949 4.66204862 -5.625 3.5 C-4.68527344 2.52546875 -4.68527344 2.52546875 -3.7265625 1.53125 C-2 0 -2 0 0 0 Z " fill="#1297C2" transform="translate(122,63)"/>
<path d="M0 0 C0.66 0 1.32 0 2 0 C0.99806563 3.79303725 0.18975773 6.71536341 -2 10 C-2.66 9.67 -3.32 9.34 -4 9 C-3.4739075 5.21213403 -2.61896089 2.82847776 0 0 Z " fill="#ECF6F6" transform="translate(128,58)"/>
<path d="M0 0 C1.65 0 3.3 0 5 0 C5 1.32 5 2.64 5 4 C3.329375 4.2165625 3.329375 4.2165625 1.625 4.4375 C-1.82142047 4.78372035 -1.82142047 4.78372035 -4 6 C-4 5.01 -4 4.02 -4 3 C-3.01 3 -2.02 3 -1 3 C-0.67 2.01 -0.34 1.02 0 0 Z " fill="#1799C1" transform="translate(147,60)"/>
<path d="M0 0 C0.68707555 2.49064888 1 4.37886292 1 7 C-2 8 -2 8 -4.1875 7.0625 C-4.785625 6.711875 -5.38375 6.36125 -6 6 C-5.34 6 -4.68 6 -4 6 C-3.71125 5.195625 -3.4225 4.39125 -3.125 3.5625 C-2 1 -2 1 0 0 Z " fill="#5EB490" transform="translate(137,152)"/>
<path d="M0 0 C0.33 0 0.66 0 1 0 C1 2.97 1 5.94 1 9 C0.01 9 -0.98 9 -2 9 C-2.6875 6.75 -2.6875 6.75 -3 4 C-1.625 1.6875 -1.625 1.6875 0 0 Z " fill="#6CB686" transform="translate(111,97)"/>
<path d="M0 0 C0.33 0.99 0.66 1.98 1 3 C-1.97 5.475 -1.97 5.475 -5 8 C-5.33 6.68 -5.66 5.36 -6 4 C-4.03617993 2.49440461 -2.21736634 1.10868317 0 0 Z " fill="#2D9CAC" transform="translate(110,76)"/>
<path d="M0 0 C1 3 1 3 1 5 C0.01 5.495 0.01 5.495 -1 6 C-1.33 6.99 -1.66 7.98 -2 9 C-2.99 9.33 -3.98 9.66 -5 10 C-5.8125 8.3125 -5.8125 8.3125 -6 6 C-3.625 3.3125 -3.625 3.3125 -1 1 C-0.67 0.67 -0.34 0.34 0 0 Z " fill="#40A7B2" transform="translate(138,67)"/>
<path d="M0 0 C0 3.58912412 -0.66436554 4.10857029 -3 6.6875 C-3.556875 7.31011719 -4.11375 7.93273437 -4.6875 8.57421875 C-5.120625 9.04472656 -5.55375 9.51523438 -6 10 C-7.32 9.67 -8.64 9.34 -10 9 C-6.7 6.03 -3.4 3.06 0 0 Z " fill="#E8F4F8" transform="translate(105,62)"/>
<path d="M0 0 C0.66 0.66 1.32 1.32 2 2 C1.625 4.125 1.625 4.125 1 6 C-0.65 6.33 -2.3 6.66 -4 7 C-3.43628586 3.73045798 -2.50037734 2.17424117 0 0 Z " fill="#38A4AC" transform="translate(150,145)"/>
<path d="M0 0 C0.93045933 2.55144824 1.08564091 3.74006478 0.22265625 6.359375 C-0.16019531 7.14828125 -0.54304688 7.9371875 -0.9375 8.75 C-1.50791016 9.94882813 -1.50791016 9.94882813 -2.08984375 11.171875 C-2.39019531 11.77515625 -2.69054688 12.3784375 -3 13 C-3.66 13 -4.32 13 -5 13 C-4.54554036 11.58208592 -4.08625056 10.16571954 -3.625 8.75 C-3.24214844 7.56664063 -3.24214844 7.56664063 -2.8515625 6.359375 C-2.04826333 4.13372042 -1.10288338 2.09068328 0 0 Z " fill="#ECF7DF" transform="translate(61,115)"/>
<path d="M0 0 C0.33 0.99 0.66 1.98 1 3 C-1.97 5.475 -1.97 5.475 -5 8 C-5.3125 5.6875 -5.3125 5.6875 -5 3 C-2.5 1.1875 -2.5 1.1875 0 0 Z " fill="#4BAA99" transform="translate(85,79)"/>
<path d="M0 0 C0.99 0 1.98 0 3 0 C2.61402985 2.79828356 2.19863427 3.8205884 0.0625 5.75 C-2 7 -2 7 -4 7 C-4 6.01 -4 5.02 -4 4 C-3.34 4 -2.68 4 -2 4 C-1.34 2.68 -0.68 1.36 0 0 Z " fill="#E6F5F3" transform="translate(93,73)"/>
<path d="M0 0 C2.97 0 5.94 0 9 0 C9 0.33 9 0.66 9 1 C7.35 1 5.7 1 4 1 C3.34 2.32 2.68 3.64 2 5 C1.01 5 0.02 5 -1 5 C-0.67 3.35 -0.34 1.7 0 0 Z " fill="#1A9BC0" transform="translate(96,62)"/>
<path d="M0 0 C1.32 0.33 2.64 0.66 4 1 C3.67 1.66 3.34 2.32 3 3 C3.66 3.33 4.32 3.66 5 4 C3.625 5.5 3.625 5.5 2 7 C1.34 7 0.68 7 0 7 C0 4.69 0 2.38 0 0 Z " fill="#51AE94" transform="translate(64,57)"/>
<path d="M0 0 C1.13134498 3.39403494 0.78520374 5.54510355 0 9 C-0.37190532 11.6628421 -0.68319703 14.32980354 -1 17 C-1.33 17 -1.66 17 -2 17 C-2.3690205 5.47835991 -2.3690205 5.47835991 0 0 Z " fill="#DBEFCF" transform="translate(71,138)"/>
<path d="M0 0 C0.625 1.8125 0.625 1.8125 1 4 C0.01 5.485 0.01 5.485 -1 7 C-2.65 6.67 -4.3 6.34 -6 6 C-4 4 -2 2 0 0 Z " fill="#118FCA" transform="translate(168,132)"/>
<path d="M0 0 C0.99 0.99 1.98 1.98 3 3 C1.25 6.875 1.25 6.875 -1 8 C-1.625 5.125 -1.625 5.125 -2 2 C-1.34 1.34 -0.68 0.68 0 0 Z " fill="#86C367" transform="translate(61,105)"/>
<path d="M0 0 C0.66 0.33 1.32 0.66 2 1 C2.625 4.0625 2.625 4.0625 3 7 C2.01 6.34 1.02 5.68 0 5 C-1.98 5.99 -1.98 5.99 -4 7 C-1.125 1.125 -1.125 1.125 0 0 Z " fill="#7DBE89" transform="translate(107,102)"/>
<path d="M0 0 C0.66 0.66 1.32 1.32 2 2 C0.8125 4.5 0.8125 4.5 -1 7 C-3.6875 7.3125 -3.6875 7.3125 -6 7 C-4.02 4.69 -2.04 2.38 0 0 Z " fill="#E9F5F5" transform="translate(86,81)"/>
<path d="M0 0 C0.66 0.99 1.32 1.98 2 3 C0.35 4.65 -1.3 6.3 -3 8 C-3.1875 5.125 -3.1875 5.125 -3 2 C-2.01 1.34 -1.02 0.68 0 0 Z " fill="#ECF4F4" transform="translate(107,72)"/>
<path d="M0 0 C0 3 0 3 -2 5.1875 C-2.66 5.785625 -3.32 6.38375 -4 7 C-4.99 6.01 -5.98 5.02 -7 4 C-4.69 2.68 -2.38 1.36 0 0 Z " fill="#EAF3F3" transform="translate(140,140)"/>
<path d="M0 0 C0.99 0.33 1.98 0.66 3 1 C3.33 2.65 3.66 4.3 4 6 C2.68 6.33 1.36 6.66 0 7 C0 4.69 0 2.38 0 0 Z " fill="#80C072" transform="translate(112,136)"/>
<path d="M0 0 C0.33 0.66 0.66 1.32 1 2 C-0.4726862 5.27263601 -1.42695432 6.72014048 -4.6875 8.3125 C-5.450625 8.539375 -6.21375 8.76625 -7 9 C-6.02180976 7.68677212 -5.0424189 6.37443848 -4.0625 5.0625 C-3.51722656 4.33160156 -2.97195312 3.60070312 -2.41015625 2.84765625 C-1 1 -1 1 0 0 Z " fill="#D9F1F3" transform="translate(121,66)"/>
<path d="M0 0 C2.64 0 5.28 0 8 0 C8 0.99 8 1.98 8 3 C5.36 2.67 2.72 2.34 0 2 C0 1.34 0 0.68 0 0 Z " fill="#0593D5" transform="translate(160,61)"/>
<path d="M0 0 C-3.06117568 2.62386487 -3.73173127 3 -8 3 C-7.67 2.01 -7.34 1.02 -7 0 C-4.3333581 -1.33332095 -2.83319697 -0.67102033 0 0 Z " fill="#B1D179" transform="translate(106,158)"/>
<path d="M0 0 C0.66 0.99 1.32 1.98 2 3 C0.02 3.66 -1.96 4.32 -4 5 C-4.66 4.34 -5.32 3.68 -6 3 C-4.02 2.01 -2.04 1.02 0 0 Z " fill="#86BD85" transform="translate(120,148)"/>
<path d="M0 0 C2.0625 0.4375 2.0625 0.4375 4 1 C4 1.66 4 2.32 4 3 C2.02 3.66 0.04 4.32 -2 5 C-1.125 1.125 -1.125 1.125 0 0 Z " fill="#49AA97" transform="translate(138,137)"/>
<path d="M0 0 C2.46800047 1.15173355 4.04783565 2.04783565 6 4 C4.02 4.99 4.02 4.99 2 6 C0 3 0 3 0 0 Z " fill="#5EB299" transform="translate(136,121)"/>
<path d="M0 0 C0.33 0.66 0.66 1.32 1 2 C0.67 2.66 0.34 3.32 0 4 C0.66 4 1.32 4 2 4 C2.33 5.32 2.66 6.64 3 8 C1.68 7.67 0.36 7.34 -1 7 C-1.625 4.625 -1.625 4.625 -2 2 C-1.34 1.34 -0.68 0.68 0 0 Z " fill="#F2F6F8" transform="translate(109,80)"/>
<path d="M0 0 C0 1.65 0 3.3 0 5 C-1.65 4.67 -3.3 4.34 -5 4 C-5 3.34 -5 2.68 -5 2 C-1.125 0 -1.125 0 0 0 Z " fill="#80BD6B" transform="translate(120,161)"/>
<path d="M0 0 C-3.00617269 3.00617269 -5.82381598 2.59585316 -10 3 C-8.0130571 -0.97388579 -3.91761109 -0.08705802 0 0 Z " fill="#90C365" transform="translate(110,144)"/>
<path d="M0 0 C-0.33 1.32 -0.66 2.64 -1 4 C-2.32 4 -3.64 4 -5 4 C-4.67 3.01 -4.34 2.02 -4 1 C-2 0 -2 0 0 0 Z " fill="#0E95D5" transform="translate(168,119)"/>
<path d="M0 0 C0.66 0 1.32 0 2 0 C2 0.66 2 1.32 2 2 C2.66 2 3.32 2 4 2 C2.768606 4.46278801 1.21935077 5.42497687 -1 7 C-0.67 4.69 -0.34 2.38 0 0 Z " fill="#59B285" transform="translate(84,104)"/>
<path d="M0 0 C0.33 1.32 0.66 2.64 1 4 C-0.65 4.33 -2.3 4.66 -4 5 C-4.33 4.01 -4.66 3.02 -5 2 C-2 0 -2 0 0 0 Z " fill="#F1F5F6" transform="translate(111,59)"/>
<path d="M0 0 C0 0.99 0 1.98 0 3 C-2.875 3.125 -2.875 3.125 -6 3 C-6.66 2.34 -7.32 1.68 -8 1 C-5.23735711 0.40267181 -2.83967231 0 0 0 Z " fill="#3BAAA6" transform="translate(80,58)"/>
</svg>
