<?xml version="1.0" encoding="UTF-8"?>
<svg xmlns="http://www.w3.org/2000/svg" width="263" height="40" viewBox="0 0 263 40" fill="none">
  <path d="M0 23.7801V5.07923L0 0.618467L4.6472 0.616211C9.15609 0.616211 18.0632 0.616211 18.0632 0.616211C18.0632 0.616211 3.87267 11.7601 0 23.7801Z" fill="url(#paint0_linear_3828_139513)"></path>
  <path d="M30.0732 0.643555C30.7924 0.643555 31.1797 0.643555 31.5946 0.643555C32.711 0.643555 35.9652 0.643555 35.9652 0.643555C35.9652 0.643555 35.9652 3.75344 35.9652 4.69588C35.9652 6.83155 35.9652 16.3326 35.9652 16.3326C35.9652 16.3326 28.9667 21.4801 20.3915 26.8741C11.8163 32.268 6.83718 31.2002 13.3931 19.6183C16.8785 13.5124 29.354 0.643555 30.0732 0.643555Z" fill="url(#paint1_linear_3828_139513)"></path>
  <path d="M13.5547 36.2399C13.5547 36.2399 28.6857 36.2399 30.7881 36.2399C32.1613 36.2399 35.9885 36.2399 35.9885 36.2399C35.9885 36.2399 35.9885 33.1576 35.9885 31.503C35.9885 27.3138 35.9885 24.521 35.9885 24.521C35.9885 24.521 32.1158 27.5602 26.5558 30.6542C20.9957 33.7482 17.1231 34.8434 13.5547 36.2399Z" fill="url(#paint2_linear_3828_139513)"></path>
  <path d="M35.9608 19.9465C35.9608 19.7823 23.7619 28.7905 13.5547 33.1713V33.9928C23.7619 29.8035 35.9608 21.8632 35.9608 21.781C35.9608 21.6441 35.9608 20.0287 35.9608 19.9465Z" fill="url(#paint3_linear_3828_139513)"></path>
  <path d="M5.06755 26.9562C7.22518 21.042 11.5128 13.9231 23.7393 0.643555C23.0478 0.643555 22.4669 0.643555 22.4669 0.643555C22.4669 0.643555 8.99554 14.3064 4.98457 21.7539C0.973591 29.2014 2.495 33.8013 6.64428 36.2382V35.362C6.34 35.1156 2.90992 32.8704 5.06755 26.9562Z" fill="url(#paint4_linear_3828_139513)"></path>
  <path d="M158.906 22.2567V5.23554H166.079C167.895 5.23554 169.492 5.59218 170.87 6.30544C172.264 7.01871 173.342 8.01566 174.104 9.2963C174.882 10.5769 175.271 12.0602 175.271 13.7461C175.271 15.432 174.882 16.9153 174.104 18.1959C173.342 19.4766 172.264 20.4735 170.87 21.1868C169.492 21.9001 167.895 22.2567 166.079 22.2567H158.906ZM161.338 20.1412H165.934C167.344 20.1412 168.56 19.8737 169.581 19.3388C170.618 18.8038 171.421 18.0581 171.988 17.1017C172.556 16.1291 172.839 15.0105 172.839 13.7461C172.839 12.4655 172.556 11.3469 171.988 10.3905C171.421 9.43409 170.618 8.68841 169.581 8.15345C168.56 7.6185 167.344 7.35103 165.934 7.35103H161.338V20.1412Z" fill="url(#paint5_linear_3828_139513)"></path>
  <path d="M180.211 22.2567V5.23554H182.643V22.2567H180.211Z" fill="url(#paint6_linear_3828_139513)"></path>
  <path d="M196.638 22.4512C195.325 22.4512 194.118 22.2405 193.015 21.819C191.913 21.3813 190.956 20.7734 190.146 19.9953C189.335 19.201 188.703 18.277 188.249 17.2233C187.795 16.1696 187.568 15.0105 187.568 13.7461C187.568 12.4817 187.795 11.3226 188.249 10.2689C188.703 9.21525 189.335 8.29935 190.146 7.52124C190.973 6.72692 191.937 6.11902 193.04 5.69754C194.142 5.25986 195.358 5.04102 196.687 5.04102C198.032 5.04102 199.264 5.25986 200.383 5.69754C201.502 6.13523 202.45 6.79176 203.228 7.66714L201.72 9.17472C201.023 8.49388 200.261 7.99945 199.435 7.69145C198.624 7.36724 197.741 7.20513 196.784 7.20513C195.812 7.20513 194.904 7.36724 194.061 7.69145C193.234 8.01566 192.513 8.46956 191.897 9.05314C191.297 9.63673 190.827 10.3338 190.486 11.1443C190.162 11.9386 190 12.8059 190 13.7461C190 14.6701 190.162 15.5374 190.486 16.3479C190.827 17.1422 191.297 17.8393 191.897 18.4391C192.513 19.0227 193.234 19.4766 194.061 19.8008C194.888 20.125 195.787 20.2871 196.76 20.2871C197.668 20.2871 198.535 20.1493 199.362 19.8737C200.205 19.5819 200.983 19.1037 201.696 18.4391L203.082 20.2871C202.239 21.0004 201.25 21.5434 200.115 21.9163C198.997 22.2729 197.838 22.4512 196.638 22.4512ZM200.748 19.971V13.6489H203.082V20.2871L200.748 19.971Z" fill="url(#paint7_linear_3828_139513)"></path>
  <path d="M208.953 22.2567V5.23554H211.385V22.2567H208.953Z" fill="url(#paint8_linear_3828_139513)"></path>
  <path d="M221.077 22.2567V7.35103H215.241V5.23554H229.32V7.35103H223.484V22.2567H221.077Z" fill="url(#paint9_linear_3828_139513)"></path>
  <path d="M229.751 22.2567L237.46 5.23554H239.867L247.599 22.2567H245.046L238.165 6.59723H239.137L232.256 22.2567H229.751ZM233.034 18.0014L233.691 16.0561H243.271L243.976 18.0014H233.034Z" fill="url(#paint10_linear_3828_139513)"></path>
  <path d="M251.354 22.2567V5.23554H253.786V20.1412H263.002V22.2567H251.354Z" fill="url(#paint11_linear_3828_139513)"></path>
  <path d="M53.1496 22.4128C51.5311 22.4128 50.0786 22.06 48.7921 21.3546C47.5264 20.6283 46.5304 19.6427 45.8042 18.3977C45.078 17.132 44.7148 15.6899 44.7148 14.0714C44.7148 12.4322 45.078 10.9901 45.8042 9.74515C46.5304 8.50018 47.5264 7.52495 48.7921 6.81946C50.0786 6.11397 51.5311 5.76123 53.1496 5.76123C54.5398 5.76123 55.7951 6.03098 56.9156 6.57047C58.0361 7.10995 58.9179 7.91919 59.5612 8.99817L57.9116 10.1186C57.3514 9.28866 56.6562 8.67655 55.8263 8.28231C54.9963 7.88807 54.0937 7.69094 53.1184 7.69094C51.9565 7.69094 50.9086 7.96069 49.9749 8.50018C49.0411 9.01892 48.3045 9.75553 47.765 10.71C47.2255 11.6645 46.9558 12.785 46.9558 14.0714C46.9558 15.3579 47.2255 16.4784 47.765 17.4329C48.3045 18.3874 49.0411 19.1343 49.9749 19.6738C50.9086 20.1926 51.9565 20.4519 53.1184 20.4519C54.0937 20.4519 54.9963 20.2548 55.8263 19.8606C56.6562 19.4663 57.3514 18.8646 57.9116 18.0554L59.5612 19.1758C58.9179 20.2341 58.0361 21.0433 56.9156 21.6035C55.7951 22.143 54.5398 22.4128 53.1496 22.4128Z" fill="white"></path>
  <path d="M70.6006 22.4128C69.0236 22.4128 67.6023 22.06 66.3366 21.3546C65.0916 20.6283 64.106 19.6427 63.3798 18.3977C62.6535 17.132 62.2904 15.6899 62.2904 14.0714C62.2904 12.4322 62.6535 10.9901 63.3798 9.74515C64.106 8.50018 65.0916 7.52495 66.3366 6.81946C67.5816 6.11397 69.0029 5.76123 70.6006 5.76123C72.2191 5.76123 73.6508 6.11397 74.8958 6.81946C76.1615 7.52495 77.1471 8.50018 77.8526 9.74515C78.5788 10.9901 78.942 12.4322 78.942 14.0714C78.942 15.6899 78.5788 17.132 77.8526 18.3977C77.1471 19.6427 76.1615 20.6283 74.8958 21.3546C73.6301 22.06 72.1983 22.4128 70.6006 22.4128ZM70.6006 20.4519C71.7833 20.4519 72.8312 20.1926 73.7442 19.6738C74.6572 19.1343 75.373 18.3874 75.8918 17.4329C76.4313 16.4577 76.701 15.3372 76.701 14.0714C76.701 12.785 76.4313 11.6645 75.8918 10.71C75.373 9.75553 74.6572 9.01892 73.7442 8.50018C72.8312 7.96069 71.7937 7.69094 70.6317 7.69094C69.4698 7.69094 68.4323 7.96069 67.5193 8.50018C66.6063 9.01892 65.8801 9.75553 65.3406 10.71C64.8011 11.6645 64.5314 12.785 64.5314 14.0714C64.5314 15.3372 64.8011 16.4577 65.3406 17.4329C65.8801 18.3874 66.6063 19.1343 67.5193 19.6738C68.4323 20.1926 69.4594 20.4519 70.6006 20.4519Z" fill="white"></path>
  <path d="M92.1995 22.4128C90.7885 22.4128 89.5124 22.0912 88.3712 21.4479C87.23 20.7839 86.317 19.8398 85.6322 18.6156C84.9683 17.3706 84.6363 15.8559 84.6363 14.0714C84.6363 12.287 84.9683 10.7826 85.6322 9.55841C86.2962 8.31343 87.1988 7.36932 88.3401 6.72609C89.4813 6.08285 90.7678 5.76123 92.1995 5.76123C93.7557 5.76123 95.1459 6.11397 96.3702 6.81946C97.6151 7.5042 98.5904 8.47943 99.2959 9.74515C100.001 10.9901 100.354 12.4322 100.354 14.0714C100.354 15.7314 100.001 17.1839 99.2959 18.4289C98.5904 19.6738 97.6151 20.6491 96.3702 21.3546C95.1459 22.06 93.7557 22.4128 92.1995 22.4128ZM83.7648 28.2953V5.91685H85.8812V10.8345L85.6634 14.1026L85.9746 17.4018V28.2953H83.7648ZM92.0439 20.4519C93.2058 20.4519 94.2433 20.1926 95.1563 19.6738C96.0693 19.1343 96.7955 18.3874 97.335 17.4329C97.8745 16.4577 98.1443 15.3372 98.1443 14.0714C98.1443 12.8057 97.8745 11.6956 97.335 10.7411C96.7955 9.78665 96.0693 9.03967 95.1563 8.50018C94.2433 7.96069 93.2058 7.69094 92.0439 7.69094C90.8819 7.69094 89.834 7.96069 88.9003 8.50018C87.9873 9.03967 87.2611 9.78665 86.7216 10.7411C86.2029 11.6956 85.9435 12.8057 85.9435 14.0714C85.9435 15.3372 86.2029 16.4577 86.7216 17.4329C87.2611 18.3874 87.9873 19.1343 88.9003 19.6738C89.834 20.1926 90.8819 20.4519 92.0439 20.4519Z" fill="white"></path>
  <path d="M113.605 22.4128C112.194 22.4128 110.918 22.0912 109.777 21.4479C108.635 20.7839 107.722 19.8398 107.038 18.6156C106.374 17.3706 106.042 15.8559 106.042 14.0714C106.042 12.287 106.374 10.7826 107.038 9.55841C107.702 8.31343 108.604 7.36932 109.745 6.72609C110.887 6.08285 112.173 5.76123 113.605 5.76123C115.161 5.76123 116.551 6.11397 117.775 6.81946C119.02 7.5042 119.996 8.47943 120.701 9.74515C121.407 10.9901 121.759 12.4322 121.759 14.0714C121.759 15.7314 121.407 17.1839 120.701 18.4289C119.996 19.6738 119.02 20.6491 117.775 21.3546C116.551 22.06 115.161 22.4128 113.605 22.4128ZM105.17 28.2953V5.91685H107.287V10.8345L107.069 14.1026L107.38 17.4018V28.2953H105.17ZM113.449 20.4519C114.611 20.4519 115.649 20.1926 116.562 19.6738C117.475 19.1343 118.201 18.3874 118.74 17.4329C119.28 16.4577 119.55 15.3372 119.55 14.0714C119.55 12.8057 119.28 11.6956 118.74 10.7411C118.201 9.78665 117.475 9.03967 116.562 8.50018C115.649 7.96069 114.611 7.69094 113.449 7.69094C112.287 7.69094 111.239 7.96069 110.306 8.50018C109.393 9.03967 108.666 9.78665 108.127 10.7411C107.608 11.6956 107.349 12.8057 107.349 14.0714C107.349 15.3372 107.608 16.4577 108.127 17.4329C108.666 18.3874 109.393 19.1343 110.306 19.6738C111.239 20.1926 112.287 20.4519 113.449 20.4519Z" fill="white"></path>
  <path d="M133.516 22.4128C131.815 22.4128 130.321 22.06 129.034 21.3546C127.748 20.6283 126.741 19.6427 126.015 18.3977C125.289 17.132 124.926 15.6899 124.926 14.0714C124.926 12.453 125.268 11.0213 125.953 9.77628C126.658 8.5313 127.613 7.55607 128.816 6.85058C130.041 6.12435 131.41 5.76123 132.925 5.76123C134.46 5.76123 135.819 6.11397 137.002 6.81946C138.206 7.5042 139.15 8.47943 139.834 9.74515C140.519 10.9901 140.862 12.4322 140.862 14.0714C140.862 14.1752 140.851 14.2893 140.83 14.4138C140.83 14.5176 140.83 14.6317 140.83 14.7562H126.607V13.1066H139.648L138.776 13.7602C138.776 12.5775 138.517 11.5296 137.998 10.6166C137.5 9.6829 136.815 8.95667 135.944 8.43793C135.072 7.91919 134.066 7.65982 132.925 7.65982C131.804 7.65982 130.798 7.91919 129.906 8.43793C129.013 8.95667 128.318 9.6829 127.82 10.6166C127.322 11.5504 127.073 12.619 127.073 13.8224V14.1648C127.073 15.4098 127.343 16.5095 127.883 17.464C128.443 18.3977 129.211 19.1343 130.186 19.6738C131.182 20.1926 132.313 20.4519 133.578 20.4519C134.574 20.4519 135.498 20.2756 136.348 19.9228C137.22 19.5701 137.967 19.0306 138.589 18.3044L139.834 19.7361C139.108 20.6076 138.195 21.2716 137.095 21.728C136.016 22.1845 134.823 22.4128 133.516 22.4128Z" fill="white"></path>
  <path d="M145.671 22.2572V5.91685H147.787V10.3676L147.569 9.58953C148.026 8.34456 148.794 7.40045 149.873 6.75721C150.951 6.09322 152.29 5.76123 153.888 5.76123V7.90881C153.805 7.90881 153.722 7.90881 153.639 7.90881C153.556 7.88806 153.473 7.87769 153.39 7.87769C151.667 7.87769 150.319 8.4068 149.343 9.46503C148.368 10.5025 147.881 11.9861 147.881 13.9158V22.2572H145.671Z" fill="white"></path>
  <path d="M94.7534 33.5982H95.2739L95.0687 35.1445H95.8894L95.8286 35.608H95.0079L94.5064 39.2782H93.9745L94.4722 35.608H93.7617L93.8263 35.1445H94.533L94.7534 33.5982Z" fill="white"></path>
  <path d="M96.9053 35.1445H97.4334L97.365 35.665C97.5069 35.4674 97.6779 35.3142 97.878 35.2053C98.0781 35.0938 98.2832 35.0381 98.4934 35.0381C98.6429 35.0381 98.7987 35.0736 98.9608 35.1445L98.71 35.6308C98.5783 35.5776 98.4681 35.551 98.3795 35.551C98.1946 35.551 98.0109 35.6156 97.8286 35.7448C97.6487 35.874 97.5018 36.0627 97.3878 36.3109C97.2764 36.5566 97.1814 36.9619 97.1029 37.5267L96.8597 39.2782H96.343L96.9053 35.1445Z" fill="white"></path>
  <path d="M103.389 39.2782H102.853L102.933 38.6551C102.454 39.1414 101.906 39.3846 101.288 39.3846C100.725 39.3846 100.263 39.2035 99.9007 38.8413C99.5385 38.4791 99.3574 38.013 99.3574 37.4431C99.3574 36.7846 99.5917 36.2197 100.06 35.7486C100.531 35.2749 101.085 35.0381 101.721 35.0381C102.065 35.0381 102.367 35.1103 102.625 35.2547C102.886 35.3991 103.109 35.6245 103.294 35.931L103.389 35.1445H103.939L103.389 39.2782ZM101.344 38.8983C101.686 38.8983 101.998 38.8185 102.279 38.6589C102.56 38.4968 102.783 38.265 102.948 37.9636C103.112 37.6622 103.195 37.3342 103.195 36.9796C103.195 36.5515 103.059 36.2033 102.788 35.9348C102.517 35.6663 102.165 35.532 101.732 35.532C101.223 35.532 100.787 35.7157 100.425 36.0829C100.063 36.4502 99.8817 36.9011 99.8817 37.4355C99.8817 37.8737 100.017 38.227 100.288 38.4955C100.559 38.764 100.911 38.8983 101.344 38.8983Z" fill="white"></path>
  <path d="M105.567 35.1445H106.076L105.996 35.779C106.414 35.2851 106.901 35.0381 107.455 35.0381C107.881 35.0381 108.224 35.1698 108.485 35.4333C108.746 35.6941 108.876 36.0462 108.876 36.4895C108.876 36.6668 108.848 36.9644 108.793 37.3823L108.534 39.2782H108.01L108.265 37.3823C108.32 36.9771 108.348 36.6782 108.348 36.4857C108.348 36.1969 108.261 35.9639 108.086 35.7866C107.911 35.6093 107.682 35.5206 107.398 35.5206C107.12 35.5206 106.86 35.5928 106.62 35.7372C106.381 35.879 106.197 36.0741 106.065 36.3223C105.933 36.568 105.832 36.9581 105.761 37.4925L105.514 39.2782H104.993L105.567 35.1445Z" fill="white"></path>
  <path d="M112.613 35.608L112.324 36.0373C112.091 35.7055 111.815 35.5396 111.496 35.5396C111.313 35.5396 111.157 35.5992 111.028 35.7182C110.899 35.8372 110.835 35.969 110.835 36.1133C110.835 36.2248 110.874 36.3312 110.952 36.4325C111.028 36.5338 111.202 36.6718 111.473 36.8466C111.868 37.1024 112.129 37.3253 112.256 37.5153C112.38 37.7078 112.442 37.9294 112.442 38.1802C112.442 38.5272 112.32 38.8147 112.077 39.0426C111.836 39.2706 111.522 39.3846 111.135 39.3846C110.623 39.3846 110.192 39.1579 109.843 38.7045L110.166 38.3284C110.472 38.7007 110.805 38.8869 111.165 38.8869C111.37 38.8869 111.549 38.8147 111.701 38.6703C111.853 38.5259 111.929 38.3588 111.929 38.1688C111.929 38.0143 111.872 37.8661 111.758 37.7243C111.684 37.6331 111.487 37.4786 111.165 37.2607C110.818 37.0227 110.59 36.8251 110.481 36.668C110.372 36.5135 110.318 36.3388 110.318 36.1437C110.318 35.8372 110.433 35.5764 110.664 35.3611C110.894 35.1458 111.185 35.0381 111.537 35.0381C111.745 35.0381 111.933 35.0799 112.1 35.1635C112.269 35.2471 112.44 35.3953 112.613 35.608Z" fill="white"></path>
  <path d="M115.92 33.6893L115.847 34.1909C115.657 34.0085 115.479 33.9173 115.312 33.9173C115.205 33.9173 115.114 33.9692 115.038 34.0731C114.962 34.1769 114.903 34.3872 114.86 34.7038L114.795 35.1445H115.646L115.589 35.6118H114.738L114.221 39.2782H113.701L114.221 35.6118H113.701L113.758 35.1445H114.282L114.331 34.7798C114.392 34.3517 114.457 34.0655 114.525 33.9211C114.594 33.7767 114.695 33.6615 114.829 33.5754C114.963 33.4867 115.112 33.4424 115.274 33.4424C115.486 33.4424 115.702 33.5247 115.92 33.6893Z" fill="white"></path>
  <path d="M118.809 35.0381C119.161 35.0381 119.484 35.123 119.777 35.2927C120.071 35.4598 120.301 35.6941 120.465 35.9956C120.63 36.2944 120.712 36.6338 120.712 37.0138C120.712 37.4469 120.607 37.8496 120.397 38.222C120.187 38.5918 119.904 38.878 119.55 39.0806C119.195 39.2833 118.793 39.3846 118.345 39.3846C117.79 39.3846 117.333 39.2035 116.974 38.8413C116.616 38.4765 116.438 38.013 116.438 37.4507C116.438 37.01 116.543 36.6035 116.753 36.2311C116.963 35.8588 117.251 35.5675 117.616 35.3573C117.983 35.1445 118.381 35.0381 118.809 35.0381ZM118.797 35.5434C118.468 35.5434 118.158 35.6258 117.866 35.7904C117.578 35.955 117.355 36.1817 117.198 36.4705C117.043 36.7567 116.966 37.0733 116.966 37.4203C116.966 37.856 117.1 38.2106 117.369 38.4841C117.637 38.7552 117.984 38.8907 118.41 38.8907C118.742 38.8907 119.042 38.8122 119.31 38.6551C119.581 38.4955 119.796 38.2663 119.956 37.9674C120.116 37.6685 120.195 37.3481 120.195 37.0062C120.195 36.72 120.136 36.4667 120.017 36.2463C119.898 36.0234 119.729 35.8512 119.512 35.7296C119.294 35.6055 119.056 35.5434 118.797 35.5434Z" fill="white"></path>
  <path d="M122.218 35.1445H122.746L122.678 35.665C122.82 35.4674 122.991 35.3142 123.191 35.2053C123.391 35.0938 123.596 35.0381 123.806 35.0381C123.956 35.0381 124.112 35.0736 124.274 35.1445L124.023 35.6308C123.891 35.5776 123.781 35.551 123.692 35.551C123.507 35.551 123.324 35.6156 123.141 35.7448C122.962 35.874 122.815 36.0627 122.701 36.3109C122.589 36.5566 122.494 36.9619 122.416 37.5267L122.173 39.2782H121.656L122.218 35.1445Z" fill="white"></path>
  <path d="M125.168 35.1445H125.689L125.605 35.7296C125.765 35.5143 125.968 35.3459 126.217 35.2243C126.465 35.1002 126.714 35.0381 126.965 35.0381C127.277 35.0381 127.553 35.1306 127.793 35.3155C127.978 35.4598 128.116 35.6751 128.208 35.9614C128.395 35.6675 128.625 35.4408 128.899 35.2813C129.175 35.1192 129.455 35.0381 129.739 35.0381C130.121 35.0381 130.435 35.161 130.681 35.4067C130.927 35.6523 131.049 35.9702 131.049 36.3603C131.049 36.5376 131.033 36.7542 131 37.01L130.692 39.2782H130.176L130.453 37.2949C130.511 36.8795 130.54 36.5756 130.54 36.3831C130.54 36.1425 130.461 35.9436 130.301 35.7866C130.144 35.6296 129.936 35.551 129.678 35.551C129.404 35.551 129.15 35.6371 128.914 35.8094C128.679 35.9791 128.511 36.1805 128.413 36.4135C128.314 36.6465 128.239 36.9403 128.189 37.2949L127.907 39.2782H127.379L127.691 37.01C127.726 36.7694 127.744 36.5718 127.744 36.4173C127.744 36.1513 127.665 35.9386 127.508 35.779C127.351 35.6194 127.146 35.5396 126.893 35.5396C126.68 35.5396 126.476 35.5903 126.281 35.6916C126.086 35.7904 125.927 35.9208 125.803 36.0829C125.678 36.245 125.583 36.4464 125.518 36.687C125.454 36.9251 125.409 37.1404 125.381 37.3329L125.107 39.2782H124.579L125.168 35.1445Z" fill="white"></path>
  <path d="M136.393 39.2782H135.857L135.937 38.6551C135.458 39.1414 134.91 39.3846 134.292 39.3846C133.73 39.3846 133.267 39.2035 132.905 38.8413C132.543 38.4791 132.362 38.013 132.362 37.4431C132.362 36.7846 132.596 36.2197 133.065 35.7486C133.536 35.2749 134.089 35.0381 134.725 35.0381C135.069 35.0381 135.371 35.1103 135.629 35.2547C135.89 35.3991 136.113 35.6245 136.298 35.931L136.393 35.1445H136.944L136.393 39.2782ZM134.349 38.8983C134.691 38.8983 135.002 38.8185 135.283 38.6589C135.565 38.4968 135.788 38.265 135.952 37.9636C136.117 37.6622 136.199 37.3342 136.199 36.9796C136.199 36.5515 136.064 36.2033 135.793 35.9348C135.522 35.6663 135.169 35.532 134.736 35.532C134.227 35.532 133.792 35.7157 133.429 36.0829C133.067 36.4502 132.886 36.9011 132.886 37.4355C132.886 37.8737 133.022 38.227 133.293 38.4955C133.564 38.764 133.916 38.8983 134.349 38.8983Z" fill="white"></path>
  <path d="M139.221 33.5982H139.742L139.536 35.1445H140.357L140.296 35.608H139.476L138.974 39.2782H138.442L138.94 35.608H138.229L138.294 35.1445H139.001L139.221 33.5982Z" fill="white"></path>
  <path d="M141.909 33.4424C142.025 33.4424 142.125 33.4842 142.209 33.5678C142.293 33.6513 142.334 33.7514 142.334 33.8679C142.334 33.987 142.293 34.0883 142.209 34.1719C142.125 34.2529 142.025 34.2934 141.909 34.2934C141.79 34.2934 141.688 34.2529 141.605 34.1719C141.524 34.0883 141.483 33.987 141.483 33.8679C141.483 33.7514 141.524 33.6513 141.605 33.5678C141.688 33.4842 141.79 33.4424 141.909 33.4424ZM141.491 35.1445H141.996L141.445 39.2782H140.921L141.491 35.1445Z" fill="white"></path>
  <path d="M145.398 35.0381C145.75 35.0381 146.073 35.123 146.367 35.2927C146.661 35.4598 146.89 35.6941 147.055 35.9956C147.219 36.2944 147.302 36.6338 147.302 37.0138C147.302 37.4469 147.196 37.8496 146.986 38.222C146.776 38.5918 146.494 38.878 146.139 39.0806C145.784 39.2833 145.383 39.3846 144.935 39.3846C144.38 39.3846 143.923 39.2035 143.563 38.8413C143.206 38.4765 143.027 38.013 143.027 37.4507C143.027 37.01 143.132 36.6035 143.343 36.2311C143.553 35.8588 143.84 35.5675 144.205 35.3573C144.572 35.1445 144.97 35.0381 145.398 35.0381ZM145.387 35.5434C145.057 35.5434 144.747 35.6258 144.456 35.7904C144.167 35.955 143.944 36.1817 143.787 36.4705C143.633 36.7567 143.555 37.0733 143.555 37.4203C143.555 37.856 143.69 38.2106 143.958 38.4841C144.227 38.7552 144.574 38.8907 144.999 38.8907C145.331 38.8907 145.631 38.8122 145.9 38.6551C146.171 38.4955 146.386 38.2663 146.546 37.9674C146.705 37.6685 146.785 37.3481 146.785 37.0062C146.785 36.72 146.725 36.4667 146.606 36.2463C146.487 36.0234 146.319 35.8512 146.101 35.7296C145.883 35.6055 145.645 35.5434 145.387 35.5434Z" fill="white"></path>
  <path d="M149.032 35.1445H149.541L149.461 35.779C149.879 35.2851 150.365 35.0381 150.92 35.0381C151.346 35.0381 151.689 35.1698 151.95 35.4333C152.211 35.6941 152.341 36.0462 152.341 36.4895C152.341 36.6668 152.313 36.9644 152.258 37.3823L151.999 39.2782H151.475L151.729 37.3823C151.785 36.9771 151.813 36.6782 151.813 36.4857C151.813 36.1969 151.726 35.9639 151.551 35.7866C151.376 35.6093 151.147 35.5206 150.863 35.5206C150.585 35.5206 150.325 35.5928 150.084 35.7372C149.846 35.879 149.661 36.0741 149.53 36.3223C149.398 36.568 149.297 36.9581 149.226 37.4925L148.979 39.2782H148.458L149.032 35.1445Z" fill="white"></path>
  <path d="M157.367 33.5982H157.887L157.682 35.1445H158.503L158.442 35.608H157.621L157.12 39.2782H156.588L157.086 35.608H156.375L156.44 35.1445H157.147L157.367 33.5982Z" fill="white"></path>
  <path d="M159.956 33.5488H160.472L160.169 35.7714C160.594 35.2825 161.08 35.0381 161.628 35.0381C162.045 35.0381 162.386 35.1686 162.65 35.4295C162.915 35.6903 163.048 36.0298 163.048 36.4477C163.048 36.6782 163.021 36.9885 162.965 37.3785L162.707 39.2782H162.182L162.441 37.3785C162.494 36.9961 162.52 36.6921 162.52 36.4667C162.52 36.183 162.432 35.9538 162.254 35.779C162.077 35.6042 161.844 35.5168 161.555 35.5168C161.287 35.5168 161.032 35.589 160.792 35.7334C160.554 35.8778 160.369 36.0728 160.237 36.3185C160.108 36.5642 160.006 36.9543 159.933 37.4887L159.686 39.2782H159.169L159.956 33.5488Z" fill="white"></path>
  <path d="M168.411 39.2782H167.875L167.955 38.6551C167.476 39.1414 166.928 39.3846 166.31 39.3846C165.748 39.3846 165.285 39.2035 164.923 38.8413C164.561 38.4791 164.38 38.013 164.38 37.4431C164.38 36.7846 164.614 36.2197 165.083 35.7486C165.554 35.2749 166.107 35.0381 166.743 35.0381C167.087 35.0381 167.389 35.1103 167.647 35.2547C167.908 35.3991 168.131 35.6245 168.316 35.931L168.411 35.1445H168.962L168.411 39.2782ZM166.367 38.8983C166.709 38.8983 167.02 38.8185 167.301 38.6589C167.583 38.4968 167.806 38.265 167.97 37.9636C168.135 37.6622 168.217 37.3342 168.217 36.9796C168.217 36.5515 168.082 36.2033 167.811 35.9348C167.54 35.6663 167.187 35.532 166.754 35.532C166.245 35.532 165.81 35.7157 165.447 36.0829C165.085 36.4502 164.904 36.9011 164.904 37.4355C164.904 37.8737 165.04 38.227 165.311 38.4955C165.582 38.764 165.934 38.8983 166.367 38.8983Z" fill="white"></path>
  <path d="M171.239 33.5982H171.76L171.554 35.1445H172.375L172.314 35.608H171.494L170.992 39.2782H170.46L170.958 35.608H170.247L170.312 35.1445H171.019L171.239 33.5982Z" fill="white"></path>
  <path d="M176.159 35.1445H176.679L176.595 35.7296C176.755 35.5143 176.959 35.3459 177.207 35.2243C177.455 35.1002 177.705 35.0381 177.956 35.0381C178.267 35.0381 178.543 35.1306 178.784 35.3155C178.969 35.4598 179.107 35.6751 179.198 35.9614C179.385 35.6675 179.616 35.4408 179.89 35.2813C180.166 35.1192 180.446 35.0381 180.729 35.0381C181.112 35.0381 181.426 35.161 181.671 35.4067C181.917 35.6523 182.04 35.9702 182.04 36.3603C182.04 36.5376 182.024 36.7542 181.991 37.01L181.683 39.2782H181.166L181.443 37.2949C181.502 36.8795 181.531 36.5756 181.531 36.3831C181.531 36.1425 181.451 35.9436 181.291 35.7866C181.134 35.6296 180.927 35.551 180.668 35.551C180.395 35.551 180.14 35.6371 179.905 35.8094C179.669 35.9791 179.502 36.1805 179.403 36.4135C179.304 36.6465 179.23 36.9403 179.179 37.2949L178.898 39.2782H178.37L178.681 37.01C178.717 36.7694 178.735 36.5718 178.735 36.4173C178.735 36.1513 178.656 35.9386 178.499 35.779C178.342 35.6194 178.137 35.5396 177.883 35.5396C177.671 35.5396 177.467 35.5903 177.272 35.6916C177.077 35.7904 176.917 35.9208 176.793 36.0829C176.669 36.245 176.574 36.4464 176.508 36.687C176.445 36.9251 176.399 37.1404 176.371 37.3329L176.098 39.2782H175.57L176.159 35.1445Z" fill="white"></path>
  <path d="M187.383 39.2782H186.848L186.927 38.6551C186.449 39.1414 185.9 39.3846 185.282 39.3846C184.72 39.3846 184.258 39.2035 183.896 38.8413C183.533 38.4791 183.352 38.013 183.352 37.4431C183.352 36.7846 183.587 36.2197 184.055 35.7486C184.526 35.2749 185.08 35.0381 185.715 35.0381C186.06 35.0381 186.361 35.1103 186.62 35.2547C186.881 35.3991 187.104 35.6245 187.288 35.931L187.383 35.1445H187.934L187.383 39.2782ZM185.339 38.8983C185.681 38.8983 185.993 38.8185 186.274 38.6589C186.555 38.4968 186.778 38.265 186.943 37.9636C187.107 37.6622 187.19 37.3342 187.19 36.9796C187.19 36.5515 187.054 36.2033 186.783 35.9348C186.512 35.6663 186.16 35.532 185.727 35.532C185.218 35.532 184.782 35.7157 184.42 36.0829C184.058 36.4502 183.877 36.9011 183.877 37.4355C183.877 37.8737 184.012 38.227 184.283 38.4955C184.554 38.764 184.906 38.8983 185.339 38.8983Z" fill="white"></path>
  <path d="M189.79 33.5488H190.307L189.87 36.6756L191.861 35.1445H192.689L190.288 36.991L192.404 39.2782H191.697L189.79 37.2266L189.513 39.2782H188.981L189.79 33.5488Z" fill="white"></path>
  <path d="M197.557 37.3177H193.872C193.864 37.8091 193.992 38.1954 194.256 38.4765C194.519 38.7577 194.87 38.8983 195.308 38.8983C195.599 38.8983 195.869 38.8387 196.117 38.7197C196.366 38.6007 196.571 38.4335 196.733 38.2182L197.128 38.5411C196.928 38.797 196.666 39.0021 196.342 39.1566C196.02 39.3086 195.672 39.3846 195.297 39.3846C194.648 39.3846 194.161 39.1845 193.834 38.7843C193.51 38.3816 193.348 37.9294 193.348 37.4279C193.348 37.0176 193.457 36.6225 193.674 36.2425C193.895 35.8626 194.189 35.5675 194.556 35.3573C194.923 35.1445 195.321 35.0381 195.749 35.0381C196.278 35.0381 196.716 35.218 197.063 35.5776C197.41 35.9348 197.584 36.3907 197.584 36.9454C197.584 37.0467 197.575 37.1708 197.557 37.3177ZM197.071 36.858C197.056 36.4679 196.923 36.1526 196.672 35.912C196.421 35.6688 196.106 35.5472 195.726 35.5472C195.313 35.5472 194.948 35.6637 194.632 35.8968C194.318 36.1298 194.095 36.4502 193.963 36.858H197.071Z" fill="white"></path>
  <path d="M201.214 35.608L200.925 36.0373C200.692 35.7055 200.416 35.5396 200.097 35.5396C199.914 35.5396 199.759 35.5992 199.63 35.7182C199.5 35.8372 199.436 35.969 199.436 36.1133C199.436 36.2248 199.475 36.3312 199.554 36.4325C199.63 36.5338 199.803 36.6718 200.074 36.8466C200.469 37.1024 200.73 37.3253 200.857 37.5153C200.981 37.7078 201.043 37.9294 201.043 38.1802C201.043 38.5272 200.921 38.8147 200.678 39.0426C200.438 39.2706 200.123 39.3846 199.736 39.3846C199.224 39.3846 198.794 39.1579 198.444 38.7045L198.767 38.3284C199.074 38.7007 199.407 38.8869 199.766 38.8869C199.971 38.8869 200.15 38.8147 200.302 38.6703C200.454 38.5259 200.53 38.3588 200.53 38.1688C200.53 38.0143 200.473 37.8661 200.359 37.7243C200.286 37.6331 200.088 37.4786 199.766 37.2607C199.419 37.0227 199.191 36.8251 199.082 36.668C198.973 36.5135 198.919 36.3388 198.919 36.1437C198.919 35.8372 199.034 35.5764 199.265 35.3611C199.495 35.1458 199.787 35.0381 200.139 35.0381C200.346 35.0381 200.534 35.0799 200.701 35.1635C200.871 35.2471 201.042 35.3953 201.214 35.608Z" fill="white"></path>
  <path d="M205.525 33.5488H206.065L205.772 35.7638C206.251 35.28 206.798 35.0381 207.414 35.0381C207.978 35.0381 208.441 35.2192 208.8 35.5814C209.163 35.9436 209.344 36.4097 209.344 36.9796C209.344 37.6381 209.109 38.2043 208.641 38.6779C208.172 39.149 207.62 39.3846 206.984 39.3846C206.64 39.3846 206.337 39.3124 206.076 39.168C205.815 39.0211 205.592 38.7944 205.408 38.4879L205.313 39.2782H204.762L205.525 33.5488ZM207.357 35.5244C207.017 35.5244 206.706 35.6055 206.422 35.7676C206.141 35.9272 205.918 36.1577 205.753 36.4591C205.589 36.7605 205.506 37.0885 205.506 37.4431C205.506 37.8712 205.642 38.2195 205.913 38.4879C206.186 38.7564 206.539 38.8907 206.969 38.8907C207.478 38.8907 207.914 38.707 208.276 38.3398C208.638 37.9725 208.819 37.5216 208.819 36.9872C208.819 36.549 208.684 36.1957 208.413 35.9272C208.144 35.6587 207.792 35.5244 207.357 35.5244Z" fill="white"></path>
  <path d="M210.952 35.1445H211.484L211.245 36.8732C211.179 37.3621 211.146 37.6761 211.146 37.8155C211.146 38.1321 211.251 38.3904 211.461 38.5905C211.674 38.7906 211.954 38.8907 212.301 38.8907C212.59 38.8907 212.841 38.8147 213.053 38.6627C213.266 38.5107 213.418 38.3119 213.509 38.0662C213.555 37.9421 213.609 37.6571 213.673 37.2114L213.969 35.1445H214.49L214.277 36.7098C214.176 37.457 214.068 37.989 213.954 38.3056C213.84 38.6197 213.636 38.878 213.342 39.0806C213.051 39.2833 212.695 39.3846 212.275 39.3846C211.796 39.3846 211.403 39.2389 211.097 38.9477C210.793 38.6538 210.641 38.2878 210.641 37.8496C210.641 37.6749 210.655 37.471 210.683 37.2379L210.721 36.8732L210.74 36.7174L210.952 35.1445Z" fill="white"></path>
  <path d="M217.998 35.608L217.709 36.0373C217.476 35.7055 217.2 35.5396 216.881 35.5396C216.699 35.5396 216.543 35.5992 216.414 35.7182C216.284 35.8372 216.22 35.969 216.22 36.1133C216.22 36.2248 216.259 36.3312 216.338 36.4325C216.414 36.5338 216.587 36.6718 216.858 36.8466C217.253 37.1024 217.514 37.3253 217.641 37.5153C217.765 37.7078 217.827 37.9294 217.827 38.1802C217.827 38.5272 217.705 38.8147 217.462 39.0426C217.222 39.2706 216.908 39.3846 216.52 39.3846C216.008 39.3846 215.578 39.1579 215.228 38.7045L215.551 38.3284C215.858 38.7007 216.191 38.8869 216.55 38.8869C216.756 38.8869 216.934 38.8147 217.086 38.6703C217.238 38.5259 217.314 38.3588 217.314 38.1688C217.314 38.0143 217.257 37.8661 217.143 37.7243C217.07 37.6331 216.872 37.4786 216.55 37.2607C216.203 37.0227 215.975 36.8251 215.866 36.668C215.758 36.5135 215.703 36.3388 215.703 36.1437C215.703 35.8372 215.818 35.5764 216.049 35.3611C216.279 35.1458 216.571 35.0381 216.923 35.0381C217.13 35.0381 217.318 35.0799 217.485 35.1635C217.655 35.2471 217.826 35.3953 217.998 35.608Z" fill="white"></path>
  <path d="M219.816 33.4424C219.932 33.4424 220.032 33.4842 220.116 33.5678C220.199 33.6513 220.241 33.7514 220.241 33.8679C220.241 33.987 220.199 34.0883 220.116 34.1719C220.032 34.2529 219.932 34.2934 219.816 34.2934C219.696 34.2934 219.595 34.2529 219.512 34.1719C219.431 34.0883 219.39 33.987 219.39 33.8679C219.39 33.7514 219.431 33.6513 219.512 33.5678C219.595 33.4842 219.696 33.4424 219.816 33.4424ZM219.398 35.1445H219.903L219.352 39.2782H218.828L219.398 35.1445Z" fill="white"></path>
  <path d="M221.451 35.1445H221.96L221.88 35.779C222.298 35.2851 222.784 35.0381 223.339 35.0381C223.765 35.0381 224.108 35.1698 224.369 35.4333C224.63 35.6941 224.76 36.0462 224.76 36.4895C224.76 36.6668 224.732 36.9644 224.676 37.3823L224.418 39.2782H223.894L224.148 37.3823C224.204 36.9771 224.232 36.6782 224.232 36.4857C224.232 36.1969 224.145 35.9639 223.97 35.7866C223.795 35.6093 223.566 35.5206 223.282 35.5206C223.003 35.5206 222.744 35.5928 222.503 35.7372C222.265 35.879 222.08 36.0741 221.949 36.3223C221.817 36.568 221.715 36.9581 221.645 37.4925L221.398 39.2782H220.877L221.451 35.1445Z" fill="white"></path>
  <path d="M230.29 37.3177H226.604C226.597 37.8091 226.725 38.1954 226.988 38.4765C227.251 38.7577 227.602 38.8983 228.04 38.8983C228.332 38.8983 228.601 38.8387 228.85 38.7197C229.098 38.6007 229.303 38.4335 229.465 38.2182L229.86 38.5411C229.66 38.797 229.398 39.0021 229.074 39.1566C228.752 39.3086 228.404 39.3846 228.029 39.3846C227.381 39.3846 226.893 39.1845 226.566 38.7843C226.242 38.3816 226.08 37.9294 226.08 37.4279C226.08 37.0176 226.189 36.6225 226.407 36.2425C226.627 35.8626 226.921 35.5675 227.288 35.3573C227.655 35.1445 228.053 35.0381 228.481 35.0381C229.01 35.0381 229.449 35.218 229.796 35.5776C230.143 35.9348 230.316 36.3907 230.316 36.9454C230.316 37.0467 230.307 37.1708 230.29 37.3177ZM229.803 36.858C229.788 36.4679 229.655 36.1526 229.404 35.912C229.154 35.6688 228.838 35.5472 228.458 35.5472C228.045 35.5472 227.681 35.6637 227.364 35.8968C227.05 36.1298 226.827 36.4502 226.695 36.858H229.803Z" fill="white"></path>
  <path d="M233.946 35.608L233.657 36.0373C233.424 35.7055 233.148 35.5396 232.829 35.5396C232.647 35.5396 232.491 35.5992 232.362 35.7182C232.233 35.8372 232.168 35.969 232.168 36.1133C232.168 36.2248 232.207 36.3312 232.286 36.4325C232.362 36.5338 232.535 36.6718 232.806 36.8466C233.201 37.1024 233.462 37.3253 233.589 37.5153C233.713 37.7078 233.775 37.9294 233.775 38.1802C233.775 38.5272 233.654 38.8147 233.41 39.0426C233.17 39.2706 232.856 39.3846 232.468 39.3846C231.957 39.3846 231.526 39.1579 231.176 38.7045L231.499 38.3284C231.806 38.7007 232.139 38.8869 232.499 38.8869C232.704 38.8869 232.882 38.8147 233.034 38.6703C233.186 38.5259 233.262 38.3588 233.262 38.1688C233.262 38.0143 233.205 37.8661 233.091 37.7243C233.018 37.6331 232.82 37.4786 232.499 37.2607C232.152 37.0227 231.924 36.8251 231.815 36.668C231.706 36.5135 231.651 36.3388 231.651 36.1437C231.651 35.8372 231.767 35.5764 231.997 35.3611C232.228 35.1458 232.519 35.0381 232.871 35.0381C233.079 35.0381 233.266 35.0799 233.433 35.1635C233.603 35.2471 233.774 35.3953 233.946 35.608Z" fill="white"></path>
  <path d="M237.359 35.608L237.071 36.0373C236.838 35.7055 236.562 35.5396 236.242 35.5396C236.06 35.5396 235.904 35.5992 235.775 35.7182C235.646 35.8372 235.581 35.969 235.581 36.1133C235.581 36.2248 235.621 36.3312 235.699 36.4325C235.775 36.5338 235.949 36.6718 236.22 36.8466C236.615 37.1024 236.876 37.3253 237.002 37.5153C237.126 37.7078 237.189 37.9294 237.189 38.1802C237.189 38.5272 237.067 38.8147 236.824 39.0426C236.583 39.2706 236.269 39.3846 235.882 39.3846C235.37 39.3846 234.939 39.1579 234.59 38.7045L234.913 38.3284C235.219 38.7007 235.552 38.8869 235.912 38.8869C236.117 38.8869 236.296 38.8147 236.448 38.6703C236.6 38.5259 236.676 38.3588 236.676 38.1688C236.676 38.0143 236.619 37.8661 236.505 37.7243C236.431 37.6331 236.234 37.4786 235.912 37.2607C235.565 37.0227 235.337 36.8251 235.228 36.668C235.119 36.5135 235.065 36.3388 235.065 36.1437C235.065 35.8372 235.18 35.5764 235.41 35.3611C235.641 35.1458 235.932 35.0381 236.284 35.0381C236.492 35.0381 236.679 35.0799 236.847 35.1635C237.016 35.2471 237.187 35.3953 237.359 35.608Z" fill="white"></path>
  <path d="M243.32 35.608L243.031 36.0373C242.798 35.7055 242.522 35.5396 242.203 35.5396C242.021 35.5396 241.865 35.5992 241.736 35.7182C241.606 35.8372 241.542 35.969 241.542 36.1133C241.542 36.2248 241.581 36.3312 241.66 36.4325C241.736 36.5338 241.909 36.6718 242.18 36.8466C242.575 37.1024 242.836 37.3253 242.963 37.5153C243.087 37.7078 243.149 37.9294 243.149 38.1802C243.149 38.5272 243.027 38.8147 242.784 39.0426C242.544 39.2706 242.23 39.3846 241.842 39.3846C241.33 39.3846 240.9 39.1579 240.55 38.7045L240.873 38.3284C241.18 38.7007 241.513 38.8869 241.872 38.8869C242.078 38.8869 242.256 38.8147 242.408 38.6703C242.56 38.5259 242.636 38.3588 242.636 38.1688C242.636 38.0143 242.579 37.8661 242.465 37.7243C242.392 37.6331 242.194 37.4786 241.872 37.2607C241.525 37.0227 241.297 36.8251 241.188 36.668C241.08 36.5135 241.025 36.3388 241.025 36.1437C241.025 35.8372 241.14 35.5764 241.371 35.3611C241.601 35.1458 241.893 35.0381 242.245 35.0381C242.452 35.0381 242.64 35.0799 242.807 35.1635C242.977 35.2471 243.148 35.3953 243.32 35.608Z" fill="white"></path>
  <path d="M248.527 37.3177H244.841C244.834 37.8091 244.962 38.1954 245.225 38.4765C245.488 38.7577 245.839 38.8983 246.277 38.8983C246.569 38.8983 246.838 38.8387 247.087 38.7197C247.335 38.6007 247.54 38.4335 247.702 38.2182L248.097 38.5411C247.897 38.797 247.635 39.0021 247.311 39.1566C246.989 39.3086 246.641 39.3846 246.266 39.3846C245.618 39.3846 245.13 39.1845 244.803 38.7843C244.479 38.3816 244.317 37.9294 244.317 37.4279C244.317 37.0176 244.426 36.6225 244.644 36.2425C244.864 35.8626 245.158 35.5675 245.525 35.3573C245.892 35.1445 246.29 35.0381 246.718 35.0381C247.247 35.0381 247.686 35.218 248.033 35.5776C248.38 35.9348 248.553 36.3907 248.553 36.9454C248.553 37.0467 248.544 37.1708 248.527 37.3177ZM248.04 36.858C248.025 36.4679 247.892 36.1526 247.641 35.912C247.391 35.6688 247.075 35.5472 246.695 35.5472C246.282 35.5472 245.918 35.6637 245.601 35.8968C245.287 36.1298 245.064 36.4502 244.932 36.858H248.04Z" fill="white"></path>
  <path d="M250.276 35.1445H250.785L250.705 35.779C251.123 35.2851 251.609 35.0381 252.164 35.0381C252.59 35.0381 252.933 35.1698 253.194 35.4333C253.455 35.6941 253.585 36.0462 253.585 36.4895C253.585 36.6668 253.557 36.9644 253.501 37.3823L253.243 39.2782H252.719L252.973 37.3823C253.029 36.9771 253.057 36.6782 253.057 36.4857C253.057 36.1969 252.97 35.9639 252.795 35.7866C252.62 35.6093 252.391 35.5206 252.107 35.5206C251.828 35.5206 251.569 35.5928 251.328 35.7372C251.09 35.879 250.905 36.0741 250.774 36.3223C250.642 36.568 250.54 36.9581 250.47 37.4925L250.223 39.2782H249.702L250.276 35.1445Z" fill="white"></path>
  <path d="M257.321 35.608L257.033 36.0373C256.8 35.7055 256.523 35.5396 256.204 35.5396C256.022 35.5396 255.866 35.5992 255.737 35.7182C255.608 35.8372 255.543 35.969 255.543 36.1133C255.543 36.2248 255.583 36.3312 255.661 36.4325C255.737 36.5338 255.911 36.6718 256.182 36.8466C256.577 37.1024 256.838 37.3253 256.964 37.5153C257.088 37.7078 257.15 37.9294 257.15 38.1802C257.15 38.5272 257.029 38.8147 256.786 39.0426C256.545 39.2706 256.231 39.3846 255.843 39.3846C255.332 39.3846 254.901 39.1579 254.552 38.7045L254.875 38.3284C255.181 38.7007 255.514 38.8869 255.874 38.8869C256.079 38.8869 256.258 38.8147 256.41 38.6703C256.561 38.5259 256.637 38.3588 256.637 38.1688C256.637 38.0143 256.58 37.8661 256.466 37.7243C256.393 37.6331 256.195 37.4786 255.874 37.2607C255.527 37.0227 255.299 36.8251 255.19 36.668C255.081 36.5135 255.027 36.3388 255.027 36.1437C255.027 35.8372 255.142 35.5764 255.372 35.3611C255.603 35.1458 255.894 35.0381 256.246 35.0381C256.454 35.0381 256.641 35.0799 256.808 35.1635C256.978 35.2471 257.149 35.3953 257.321 35.608Z" fill="white"></path>
  <path d="M262.528 37.3177H258.843C258.835 37.8091 258.963 38.1954 259.226 38.4765C259.49 38.7577 259.841 38.8983 260.279 38.8983C260.57 38.8983 260.84 38.8387 261.088 38.7197C261.336 38.6007 261.541 38.4335 261.704 38.2182L262.099 38.5411C261.899 38.797 261.636 39.0021 261.312 39.1566C260.991 39.3086 260.642 39.3846 260.267 39.3846C259.619 39.3846 259.131 39.1845 258.805 38.7843C258.48 38.3816 258.318 37.9294 258.318 37.4279C258.318 37.0176 258.427 36.6225 258.645 36.2425C258.865 35.8626 259.159 35.5675 259.527 35.3573C259.894 35.1445 260.291 35.0381 260.72 35.0381C261.249 35.0381 261.687 35.218 262.034 35.5776C262.381 35.9348 262.555 36.3907 262.555 36.9454C262.555 37.0467 262.546 37.1708 262.528 37.3177ZM262.042 36.858C262.026 36.4679 261.894 36.1526 261.643 35.912C261.392 35.6688 261.077 35.5472 260.697 35.5472C260.284 35.5472 259.919 35.6637 259.602 35.8968C259.288 36.1298 259.066 36.4502 258.934 36.858H262.042Z" fill="white"></path>
  <defs>
    <linearGradient id="paint0_linear_3828_139513" x1="17.4852" y1="0.616212" x2="-5.75445" y2="12.8387" gradientUnits="userSpaceOnUse">
      <stop stop-color="#0090DA"></stop>
      <stop offset="1" stop-color="#A4CE4E"></stop>
    </linearGradient>
    <linearGradient id="paint1_linear_3828_139513" x1="35.1465" y1="0.643555" x2="3.91539" y2="18.9977" gradientUnits="userSpaceOnUse">
      <stop stop-color="#0090DA"></stop>
      <stop offset="1" stop-color="#A4CE4E"></stop>
    </linearGradient>
    <linearGradient id="paint2_linear_3828_139513" x1="35.2706" y1="24.521" x2="21.4549" y2="42.3587" gradientUnits="userSpaceOnUse">
      <stop stop-color="#0090DA"></stop>
      <stop offset="1" stop-color="#A4CE4E"></stop>
    </linearGradient>
    <linearGradient id="paint3_linear_3828_139513" x1="35.2438" y1="19.9443" x2="18.1835" y2="38.2959" gradientUnits="userSpaceOnUse">
      <stop stop-color="#0090DA"></stop>
      <stop offset="1" stop-color="#A4CE4E"></stop>
    </linearGradient>
    <linearGradient id="paint4_linear_3828_139513" x1="23.0642" y1="0.643556" x2="-6.81411" y2="12.5882" gradientUnits="userSpaceOnUse">
      <stop stop-color="#0090DA"></stop>
      <stop offset="1" stop-color="#A4CE4E"></stop>
    </linearGradient>
    <linearGradient id="paint5_linear_3828_139513" x1="259.671" y1="5.04102" x2="249.766" y2="44.983" gradientUnits="userSpaceOnUse">
      <stop stop-color="#0090DA"></stop>
      <stop offset="1" stop-color="#A4CE4E"></stop>
    </linearGradient>
    <linearGradient id="paint6_linear_3828_139513" x1="259.671" y1="5.04102" x2="249.766" y2="44.983" gradientUnits="userSpaceOnUse">
      <stop stop-color="#0090DA"></stop>
      <stop offset="1" stop-color="#A4CE4E"></stop>
    </linearGradient>
    <linearGradient id="paint7_linear_3828_139513" x1="259.671" y1="5.04102" x2="249.766" y2="44.983" gradientUnits="userSpaceOnUse">
      <stop stop-color="#0090DA"></stop>
      <stop offset="1" stop-color="#A4CE4E"></stop>
    </linearGradient>
    <linearGradient id="paint8_linear_3828_139513" x1="259.671" y1="5.04102" x2="249.766" y2="44.983" gradientUnits="userSpaceOnUse">
      <stop stop-color="#0090DA"></stop>
      <stop offset="1" stop-color="#A4CE4E"></stop>
    </linearGradient>
    <linearGradient id="paint9_linear_3828_139513" x1="259.671" y1="5.04102" x2="249.766" y2="44.983" gradientUnits="userSpaceOnUse">
      <stop stop-color="#0090DA"></stop>
      <stop offset="1" stop-color="#A4CE4E"></stop>
    </linearGradient>
    <linearGradient id="paint10_linear_3828_139513" x1="259.671" y1="5.04102" x2="249.766" y2="44.983" gradientUnits="userSpaceOnUse">
      <stop stop-color="#0090DA"></stop>
      <stop offset="1" stop-color="#A4CE4E"></stop>
    </linearGradient>
    <linearGradient id="paint11_linear_3828_139513" x1="259.671" y1="5.04102" x2="249.766" y2="44.983" gradientUnits="userSpaceOnUse">
      <stop stop-color="#0090DA"></stop>
      <stop offset="1" stop-color="#A4CE4E"></stop>
    </linearGradient>
  </defs>
</svg>
